<svg xmlns="http://www.w3.org/2000/svg" viewBox="0 0 279.75 346.45"><defs><style>.cls-1{fill:#f1ac65;}.cls-2{fill:#c16e60;}.cls-3{fill:#f8f8f8;}.cls-4{fill:#0d202e;}.cls-5{fill:#0c1f2d;}.cls-6{fill:#0c1d2d;}.cls-7{fill:#f8f8f9;}.cls-8{fill:#0f202f;}.cls-9{fill:#d38a6e;}.cls-10{fill:#132331;}.cls-11{fill:#0e1e2e;}.cls-12{fill:#102130;}.cls-13{fill:#0d1f2e;}.cls-14{fill:#0d202f;}.cls-15{fill:#112231;}.cls-16{fill:#0e202e;}.cls-17{fill:#0e202f;}.cls-18{fill:#0f202e;}.cls-19{fill:#a34d5c;}.cls-20{fill:#a14d5b;}.cls-21{fill:#11212f;}.cls-22{fill:#0e1d2c;}.cls-23{fill:#0b1d2c;}.cls-24{fill:#0c1d2c;}.cls-25{fill:#0d1e2d;}.cls-26{fill:#0b1d2b;}.cls-27{fill:#0d1d2c;}.cls-28{fill:#112130;}.cls-29{fill:#000311;}.cls-30{fill:#00010d;}.cls-31{fill:#00020f;}.cls-32{fill:#010614;}.cls-33{fill:#00020b;}.cls-34{fill:#000110;}.cls-35{fill:#000513;}.cls-36{fill:#000613;}.cls-37{fill:#000414;}.cls-38{fill:#000410;}.cls-39{fill:#00020d;}.cls-40{fill:#513244;}.cls-41{fill:#f6d2a9;}.cls-42{fill:#d38c6e;}.cls-43{fill:#d48c6f;}.cls-44{fill:#f6d1a8;}.cls-45{fill:#d38c6f;}.cls-46{fill:#c26d5f;}.cls-47{fill:#513243;}.cls-48{fill:#c16d5f;}.cls-49{fill:#4f3043;}.cls-50{fill:#c26e60;}.cls-51{fill:#d48d6f;}.cls-52{fill:#f5d0a7;}.cls-53{fill:#f6d2a8;}.cls-54{fill:#f6d1a9;}.cls-55{fill:#f4d1a8;}.cls-56{fill:#f7d3a9;}.cls-57{fill:#bf6d61;}.cls-58{fill:#bf6d60;}.cls-59{fill:#ebc8a1;}.cls-60{fill:#f5d2a9;}.cls-61{fill:#f6d3aa;}.cls-62{fill:#f3d0a7;}.cls-63{fill:#f6d3a9;}.cls-64{fill:#f4d0a7;}.cls-65{fill:#d38d6f;}.cls-66{fill:#a24d5c;}.cls-67{fill:#a24c5c;}.cls-68{fill:#d58d6f;}.cls-69{fill:#0f212f;}.cls-70{fill:#000b1b;}.cls-71{fill:#f1ac64;}.cls-72{fill:#d38c70;}.cls-73{fill:#f2ac64;}.cls-74{fill:#f2ad65;}.cls-75{fill:#c26e5f;}.cls-76{fill:#f2ad64;}.cls-77{fill:#0c1f2e;}.cls-78{fill:#a24d5b;}.cls-79{fill:#a24c5b;}.cls-80{fill:#c16e5f;}.cls-81{fill:#f7d4a9;}.cls-82{fill:#a14b5b;}.cls-83{fill:#a04b5b;}</style></defs><g id="Layer_2" data-name="Layer 2"><g id="Layer_1-2" data-name="Layer 1"><path class="cls-1" d="M89.37,324.06c-1.26-5.58-.54-11.24-.44-16.83.08-3.92-1-5.4-5-5-1.87.19-4,.77-5.77-.58,1-1.68,2.79-1.78,4.41-1.74,3.82.08,4.8-2,4.75-5.36-.07-5.16-.1-10.32,0-15.48-.23-8.3,0-16.6-.11-24.9,0-2,.16-4-.67-5.87-1.09-1.67-2.81-1.61-4.47-1.56-4,.1-5.88-1.91-5.73-5.77s-1.78-5.27-5.48-5.13c-3.48.14-7,0-10.45,0-3.75,0-6.19-1.46-6-5.52s-1.63-5.74-5.62-5.55a5.25,5.25,0,0,1-4.55-1.61,9.05,9.05,0,0,1-1-4.81c0-16.88-.21-33.77.09-50.65.22-7.2-.94-14.44.74-21.58,1.11-1.82,3-2.14,4.79-2,4.47.31,6-1.89,5.61-6a6.72,6.72,0,0,1,.49-2.92,3.1,3.1,0,0,1,1-1.25c.64-.17-.21-.24.43-.2,7,.45,10.17-2.89,9.7-9.82a2.66,2.66,0,0,1,1.06-1.12c1.69-.82,3.53-.73,5.34-.76,2.63,0,3.89-1.2,3.93-3.92,0-2.88-1.12-4.21-4.06-4.32-2-.07-4.41.57-5.73-1.86,3.14-3.37,7.2-1.53,10.86-1.93,5.12-.07,10.23,0,15.35,0,6.15-.06,6.31-.24,6.4-6.42a6.34,6.34,0,0,1,.52-3.38,4.69,4.69,0,0,1,1.64-.86,26.59,26.59,0,0,1,7-.45q31.17,0,62.33,0a22.77,22.77,0,0,1,6.93.55,4.16,4.16,0,0,1,1.53,1,7.12,7.12,0,0,1,1,3.29c.79,6.21.8,6.21,6.84,6.27,4.65,0,9.31-.07,14,0,3.72.41,7.83-1.48,11,1.94-1.47,2.55-4.06,1.75-6.24,1.94-2.51.21-3.49,1.47-3.48,3.86,0,2.19.47,3.75,3.1,4.22,7,1.26,7,1.36,7.85,8.21a3.17,3.17,0,0,0,1.12,2.12c5.94,1.41,6.51,1,7.12-4.81.16-1.58-.07-3.38,1.82-4.24,3.42,3.11,1.55,7.18,2,10.83,0,.83,0,1.66.05,2.49,0,6.5,0,6.5,6.46,7.56a5.2,5.2,0,0,1,3.54,1.62c2.16,7.15.7,14.46,1,21.69.24,17,.09,33.93.08,50.89a12.16,12.16,0,0,1-.53,3.93,3.93,3.93,0,0,1-1,1.52,3.25,3.25,0,0,1-1.81.73c-5.33-.24-8.39,1.58-8.13,7.6.12,2.88-2.53,3.57-5,3.68-4.31.18-8.63,0-12.94.1-2.34,0-4.07.49-4.57,3.37-1.29,7.28-1.41,7.26-8.59,7.52a10.52,10.52,0,0,0-2.95.37,10.5,10.5,0,0,1-1.74.42c-3.6,0-7.39,1.33-10.56-1.54-2.13-7.41-1.67-14.85-.3-22.31,2.21-2.42,5.18-1.58,7.91-1.79,1.14-.08,2.31,0,3.46,0,8.92,0,8.92,0,10.31-8.57a3.37,3.37,0,0,1,.94-1.35c7.6.57,10.17-4.57,12-10.57,1.74-1.66,4-1.36,6.09-1.44,2.85-.1,3.53-1.78,3.53-4.26,0-2.69-1.17-3.92-3.87-3.91-2.47,0-4.16.69-4.31,3.53-.11,2.09.26,4.35-1.49,6.07a1,1,0,0,1-1.43-.31c-1.59-3.37-.84-6.94-.93-10.43-.39-3.26.81-6.68-1.06-9.77-3.75-2.18-7.82-.94-11.72-1-9.26-.22-11.39-3.27-8.09-12.13,2.93-2.79,6.59-1.52,10-1.77,2.31-.17,4.64,0,7-.08,2.7-.08,3.81-1.47,3.84-4.1s-1.3-3.91-3.95-3.87c-1.32,0-2.65-.05-4,0-3,.09-6.1-.64-8.9.39-3.72,1.37-1.3,5.41-2.78,7.88a12.72,12.72,0,0,1-.84,1.23,5.94,5.94,0,0,1-4.59,1.44c-4-.24-5,1.95-5,5.51.11,4.93.13,9.86,0,14.8,0,.61,0,1.21,0,1.81-.32,7.09,1.27,14.28-1.07,21.26-1.09,1.21-2.57,1.37-4.06,1.58-5.76.79-5.78.8-5.81,6.74s.14,12-.05,17.93c-.13,4.11.75,6.87,5.64,6.51a5.13,5.13,0,0,1,4.08,1.57,11.51,11.51,0,0,1,.13,11c-6.77,2.61-13.73,1.5-20.61.77-2.61-.27-3.1-2.86-3.14-5-.07-4.13-2.22-5.42-6.05-5.34-6.66.14-13.31.09-20,0-3.26,0-4.72,1.21-5.06,4.59-.56,5.46-1.52,6.38-6.87,6.31-5.58-.08-11.3,1.24-16.73-1.17a11.33,11.33,0,0,1-.16-11c1.47-1.69,3.51-1.79,5.5-1.81,2.84,0,4.28-1.24,4.28-4.21V218.2c0-2.88-1.26-4.26-4.17-4.33-2-.05-4,0-5.62-1.58-2.49-7-.82-14.24-1.14-21.36,0-5.62,0-11.25,0-16.88,0-3-.87-5.12-4.48-5.13-3.2,0-4.22,1.62-4.58,4.55-.71,5.87-1.25,6-7.18,6.37-4.68.29-9.55-1.38-14,1.19-1.65,2.9.07,6.51-2,9.31-1.75,1.65-4,1.41-6.12,1.47-2.77.07-3.74,1.49-3.74,4.11s1.09,4,3.82,4c2,0,4-.11,5.75,1.16a5.88,5.88,0,0,1,1.34,4.66c-.23,3.85,1.47,5.51,5.29,5.24a8.07,8.07,0,0,1,3.9.63,2.86,2.86,0,0,1,1.17,1.14c2,9.15,2,9,11.88,9.24,3.7.11,7.37-1.5,11-.09,1.28,8.09,2,16.16-.41,24.18a5.58,5.58,0,0,1-4.52,1.69c-4.3-.2-5.25,2.17-5.21,5.93.08,8.46.17,16.92,0,25.38q.19,7.39,0,14.79c-.08,3.61.66,6.11,5,6.1,1.49,0,3.46.05,3.64,2.4a4.21,4.21,0,0,1-2.17,1.12c-6.41,1.43-6.19,1.44-6.51,8.29C91,315.92,92.84,320.43,89.37,324.06Z"/><path class="cls-2" d="M100.73,100.46c-.31.09-.62.16-.93.22-7.26,2.33-14.56,1.79-21.86.27-.34-.35-.85-.68-.87-1.17-.32-5.62-1.89-9.78-8.84-9.52-2.3.08-2.7-2.61-2.83-4.66-.25-4-.13-8-.11-12,0-3.06-1.19-4.75-4.39-4.63-4.62.18-6.74-2-6.63-6.63.06-2.43-.74-4.19-3.67-4.24s-4.21,1.52-4.23,4.29c0,3.86-1.43,6.57-5.76,6.48s-5.33,2.13-5.3,6c.11,13.66.07,27.32,0,41,0,2.48.27,5-.94,7.36A3.35,3.35,0,0,1,33,124.29c-8.71,1.63-8.7,1.63-8.71,10.81,0,3.65.06,7.3,0,11,.33,23.95.12,47.89.1,71.83,0,2-.06,4.05-1.92,5.42-.82-.57-.68-1.44-.68-2.25q.06-37.71.13-75.42c-2.63-3.34-1.3-7.26-1.6-10.94a38.45,38.45,0,0,1,0-4.92c.13-3.22-1.15-4.94-4.57-4.86a6.45,6.45,0,0,1-5-1.58c-3.57-.23-7.22,1-10.7-.65,3.24-2.92,7.18-1.45,10.84-1.72,8.56-.49,9.5,2,9.45-9.77-.08-18.15,0-36.31,0-54.46,0-9.48,0-9.48-9.4-9.8C7.2,46.67,3.23,48.17,0,45.16c3.47-1.56,7.1-.48,10.66-.6,2.72-2.58,6.45-.78,9.42-2.19,2.06-1.41,1.27-3.59,1.42-5.46.21-2.61,1.2-4.83,4-4.61,5.89.47,7.48-2.57,7.12-7.68a4,4,0,0,1,.58-1.88,3.13,3.13,0,0,1,1.34-1.13c7-.9,14-1.44,21,.4a5.06,5.06,0,0,1,1.62,4.47c-.32,4.37,1.71,6,5.87,5.62a5.8,5.8,0,0,1,3.77.94,4.06,4.06,0,0,1,1.12,2.17c1.51,7.17,1.51,7.17,8.76,8.36a11,11,0,0,1,1.35,1c3.58,0,7.2-.67,10.74.44-2,3.29-5.83,1-8.29,2.8-2.69,5.18-1,10.68-1,16,0,2.14,2.47,2.17,4.35,2.32,5.46.44,6.24,1.26,6.42,6.6.11,3.15,0,6.3,0,9.44C90.35,85,90,88,94.38,87.9s3.84-3.25,3.91-6c.07-3-.06-6,.06-8.94.08-1.94-.2-4.06,1.79-5.39,1.43,7.21.39,14.47.56,21.71A9.81,9.81,0,0,1,100.73,100.46Z"/><path class="cls-2" d="M268.08,44.55c11.55-.46,11.55-.46,11.55,11.14,0,20.64-.16,41.28.12,61.91.07,4.9-1.41,6.59-6.13,5.88a41.62,41.62,0,0,0-5.48-.13c-3.52,2.3-7.2,1.94-10.93.67a1.14,1.14,0,0,1-.48-1.57c3.32-2.42,7.13-1.25,10.74-1.46h1.82c8,0,8,0,8-8V55.18c0-8.31,0-8.31-8.21-8.29l-1.84,0c-8.95.36-9,.36-9,9.25,0,19.41,0,38.81,0,58.22,0,2.61.46,5.35-1.23,7.71-3.28,4.07-7.24,3.25-11.31,1.56-1.91-2.27-1.5-5-1.51-7.65,0-13.32,0-26.64,0-40,0-5,.27-7.25-6-7.28-3.93,0-4.85-2.86-5-6.16-.08-2.63-.88-4.51-4-4.51-2.81,0-3.63,1.47-3.95,4-.79,6.28-.91,6.56-6.86,6.76-4,.13-5.24,1.84-5.14,5.52s.13,7.66-.09,11.48c-.16,2.92-1.56,5-4.56,4.84-5.15-.25-6.78,2.31-6.53,7a4.22,4.22,0,0,1-1.29,3.18,43.87,43.87,0,0,1-22,0,.58.58,0,0,1-.07-.48,10.17,10.17,0,0,1,0-11l-.06.09a10,10,0,0,1,1.4-.93c8.22-1.33,8.18-1.33,8.25-10,0-3.26-.41-6.56.49-9.78a10.17,10.17,0,0,1,.94-1.41l-.1.07c2.76-2.43,6.54-.58,9.46-2.26,1.83-1.57,1.16-3.7,1.21-5.62.11-3.33.08-6.65,0-10,0-3.76,1.76-5.7,5.45-5.43,4.49.33,5.93-1.76,5.59-5.94-.25-3.07.53-6.08,4.29-5.95,5.33.18,7.13-2.32,6.75-7.2a4.44,4.44,0,0,1,.48-1.93,3,3,0,0,1,1.18-1.31c6.88-1.47,13.79-1,20.69-.29a3.39,3.39,0,0,1,1.38,1c-.32,7.48,4,10.31,10.75,10.66A4,4,0,0,1,257.8,35c1.52,7.36,1.52,7.36,8.93,8.64C267.19,43.9,267.64,44.21,268.08,44.55Z"/><path class="cls-3" d="M200,302.19l-9.9.08a6.22,6.22,0,0,1-2.61,1.29c-6.55,1.18-6.54,1.19-7.52,7.84a5,5,0,0,1-.7,1.81c-.34.36-.73.89-1.18.86-7.31-.61-9.61,3.62-9.71,10A3.23,3.23,0,0,1,167,325.2c-7.35.8-14.7,1.54-22-.45-2.44-2.86-1.83-6.21-1.26-9.43s3.34-3.44,5.82-3.39c4.26.07,6.12-1.81,5.67-6-.32-3,.89-4.53,4-5,7-1,7-1.07,7-8.11,0-.66,0-1.32.07-2,.13-5.6-.05-11.2-.1-16.8,0-2,0-4,1.15-5.72,3.5-2.23,7.18-1.76,10.89-.7,1.76,1.15,1.94,3,1.82,4.8-.31,4.4,1.82,5.9,5.9,5.58a6.65,6.65,0,0,1,3.35.64,2.84,2.84,0,0,1,1.18,1.22c1.71,6.11-.14,12.46,1.19,18.58.94,1.93,2.77,1.38,4.34,1.6S199.49,300,200,302.19Z"/><path class="cls-4" d="M178.75,89.36c0,3.67,0,7.33,0,11l-78,.1,0-11.2Z"/><path class="cls-5" d="M0,45.16l11,.27c1.58,2,1.45,4.35,1.45,6.66q0,31.86,0,63.71c0,2.31.13,4.69-1.46,6.66l-11,.22Q0,83.92,0,45.16Z"/><path class="cls-6" d="M22.48,223.3q0-36.28.08-72.55c0-1.81.16-3.63.24-5.44,2-1.61,4.31-1.53,6.65-1.34,2.91.25,4.54,1.76,4.69,4.76.17,3.32.1,6.64.1,10q0,28.89,0,57.79c0,2.43.56,5-1.29,7.16Z"/><path class="cls-7" d="M212.7,268.64c-.3,3.58,1.08,7.28-.84,10.73-1.81-1.68-1.47-3.95-1.55-6.06-.11-2.89-1.81-3.55-4.3-3.52s-3.69,1-3.8,3.52c-.1,2.11.22,4.37-1.52,6.09l.12-.12a9.88,9.88,0,0,1-11.07,0l0,.05a69,69,0,0,1,0-33l.16.1c9.48-1,18.95-2.18,28.53-1.66,3.85.21,5.8,2,5.64,5.91-.09,2.13.32,4.33-.89,6.29-3.5,2.11-4.43,2.23-10.19,1.39C214.58,261.83,215,265.26,212.7,268.64Z"/><path class="cls-8" d="M167.72,335.29c-.72,3.59,1.05,7.4-1,10.87-10.59-.83-21.19-.19-31.79-.35-6.3-.1-12.61-.12-18.91,0-2.7.06-4.07-.63-3.75-3.58.26-2.3-.23-4.64.29-6.94,2.52-2.22,5.62-1.5,8.52-1.56,4.13-.07,8.25-.18,12.37.09,3.76-.11,7.51-.14,11.27,0,7.43.28,14.92-1,22.3.8Z"/><path class="cls-9" d="M32.93,223.64q.1-27.91.21-55.84c0-4-.08-8-.09-12,0-10.15,0-10.15-10.25-10.52,0-5.65.28-11.32,0-16.95-.22-4,1.16-5.48,5.07-5a39.35,39.35,0,0,0,5,.05,6.78,6.78,0,0,1,1.51,5,130,130,0,0,0,1,17.08c.23,7.33.19,14.66,0,22q.3,27.79,0,55.57c.19,5.76.1,11.52,0,17.28,0,2,.08,4-1.55,5.52-2-4.86-.47-9.93-.87-14.88C32.74,228.57,32.92,226.1,32.93,223.64Z"/><path class="cls-10" d="M100.14,67.55c0,6.15-.26,12.29,0,18.43.17,5.09-3.44,3.28-5.82,3.43S88.75,90.47,89,85.88c.31-4.79-.13-9.63.13-14.43.18-3.33-1-4.24-4.24-4.22-7,0-7.17-.12-6.92-7.17.17-4.87-1.08-9.83.8-14.61,2.42,3.25,1.39,7,1.47,10.57.15,7.49,0,7.49,6.93,9.42a6.2,6.2,0,0,1,1.72,1C92.5,68.42,96.48,66.42,100.14,67.55Z"/><path class="cls-11" d="M245.71,223.36c0,6.28-.17,12.56.14,18.83.18,3.48-1.19,4.21-4.25,4a61.41,61.41,0,0,0-6.91.15l-.62-.71c-1-7.41-2.13-14.83.69-22.12l.1.06c3.23-2.45,6.71-1.77,10.2-.79Z"/><path class="cls-12" d="M33.81,245.9q0-11.29,0-22.58c4-2.13,7.86-2.3,11.41,1,1.89,7.08,1.53,14.18.26,21.3l-.64.69Z"/><path class="cls-13" d="M10.71,123.33c11.23-.06,11.24-.06,11.23,11.36,0,3.64,0,7.29,0,10.93-3.61-.84-8.59,1.64-10.64-1.3-1.71-2.44-.37-7-.41-10.63C10.84,130.24,10.77,126.78,10.71,123.33Z"/><path class="cls-14" d="M200.72,44.55c.05-6,.28-12,.1-18-.09-3.09.53-4.64,4-4.21a54.2,54.2,0,0,0,7,0c1.88,2.08,1.8,4.72,1.4,7.1a59.5,59.5,0,0,0-1,12.83c.1,1.93-.73,2.77-2.63,2.65C206.65,44.75,203.65,45.38,200.72,44.55Z"/><path class="cls-13" d="M256.82,123.55l11.32-.2c-.05,6-.36,11.94-.06,17.89.17,3.59-1,4.68-4.4,4.25a59.6,59.6,0,0,0-6.95-.11l-.64-.69C255.08,137.6,253.89,130.5,256.82,123.55Z"/><path class="cls-13" d="M200.5,67.33l-10.83.11q.17-11.11.31-22.25c11.26-.77,11.38-.77,11.2,10.54C201.12,59.59,202.18,63.56,200.5,67.33Z"/><path class="cls-13" d="M21.83,44.44l-11.17.12c.07-5.76.36-11.54.14-17.29-.14-3.62.53-5.53,4.69-4.9a37.16,37.16,0,0,0,6.41-.07,6.28,6.28,0,0,1,1.44,5.56C22.52,33.37,22.54,38.93,21.83,44.44Z"/><path class="cls-15" d="M89.37,324.06c0-5.75.26-11.51,0-17.25-.15-3.52.62-5.27,4.52-4.72a29.7,29.7,0,0,0,5.4-.17c2.67,0,2.64,2.13,2.88,3.84a30.56,30.56,0,0,1,.07,7c-.17,3.64.62,7.37-.82,10.92-.21.23-.42.45-.64.67Z"/><path class="cls-16" d="M89,279.5c0,6-.19,11.93.1,17.88.18,3.55-1,4.72-4.46,4.32a60.27,60.27,0,0,0-6.45-.06q-.14-11.14-.28-22.31l.67-.62C82.12,277.69,85.66,277,89,279.5Z"/><path class="cls-14" d="M189.74,279.32l11.07,0-.16,1.08c-.93,5.56-.3,11.16-.35,16.73,0,2.64-.57,4.12-3.54,3.74-2.26-.29-4.6.47-6.82-.48Z"/><path class="cls-17" d="M266.76,44.37c-9.48.6-9.48.6-10.11-10.88-2-3.38-1.65-6.89-.5-10.43l.64-.64,1,.21a5.35,5.35,0,0,0,1.43.35c8,.34,8.09.34,8,8.61C267.12,35.85,267.74,40.14,266.76,44.37Z"/><path class="cls-18" d="M88.93,66.4c-10.12.14-10.12.14-10.12-10.08V45.45l10-.48A151.77,151.77,0,0,1,88.93,66.4Z"/><path class="cls-17" d="M245.58,10.45l.22,1-.69.67c-6.9,1.28-13.78,2-20.58-.53C223.62,1,223.62,1,233.71,1c.33,0,.66,0,1,0,3.27.19,7.15-1.24,9.63.58S244.43,7.52,245.58,10.45Z"/><path class="cls-14" d="M188.78,324.16l-10,.12-.61-.68c-1.06-3.31-1.38-6.58.49-9.75,1.34-2.48.68-5.17.58-7.72-.18-4.24,2.71-3.31,5-3.24s5.32-1.25,5.07,3.1C188.92,312,189.81,318.13,188.78,324.16Z"/><path class="cls-17" d="M55.66,1.47c0,3,0,6,0,9-7,2.35-13.95,2.08-20.95.18C33.58,1,33.58.93,42.82,1,47.1,1.09,51.41.46,55.66,1.47Z"/><path class="cls-19" d="M200.5,67.33c.09-5.91,0-11.82.34-17.72.2-3.51-1.06-4.72-4.46-4.37a57,57,0,0,1-6.4,0c3.5-1.61,7.16-.36,10.74-.65,11-.08,11-.08,11.21-11.35.06-3.61-.07-7.22-.11-10.83v-.18a6.16,6.16,0,0,1,1.55-.8c3.46-.27,7-1.12,10.22.95,0,1.16.13,2.32.14,3.48.07,7.29.07,7.52-7.22,7.56-3.83,0-3.75,2.08-3.76,4.77,0,7-.08,7.19-7.06,7.25-3,0-4.13,1-4,4,.19,4.48.11,9,0,13.44C201.67,64.41,202.44,66.27,200.5,67.33Z"/><path class="cls-20" d="M21.83,44.44q0-11.07.07-22.14c.36-3.57-1-7.25.71-10.73,1.52,1.12,1.68,2.81,1.59,4.42-.24,3.84,1.51,5.36,5.24,5.12a5.3,5.3,0,0,1,4.13,1.16c.08,1,.2,2,.22,2.95.17,7.75.17,7.85-7.5,8.2-2.51.11-3.45.9-3.52,3.46S23.78,42.13,21.83,44.44Z"/><path class="cls-21" d="M33.57,22.27c-10.77.78-10.77.78-11-10.7,3.65-.93,7.58.93,11.11-1.12.36-.47.72-.47,1.07,0l20.86,0,.17,1-.62.59c-4.52,1.64-9.21.79-13.81.79-3.91,0-6.53.74-6.19,5.4a4.35,4.35,0,0,1-1.58,4Z"/><path class="cls-22" d="M212.7,268.64c-1.56-11-1.56-11,10.16-11.49l.45-.19.37.31c-.74,3.55,1.41,8.28-1,10.42C220.68,269.48,216.13,268.43,212.7,268.64Z"/><path class="cls-23" d="M178.75,324.28c.06,11.24.06,11.24-11,11l.1.06a10,10,0,0,1,0-11.1l-.07.05a10.12,10.12,0,0,1,11.11.06Z"/><path class="cls-24" d="M111.8,335.28c-.33,0-.66.07-1,.07-11,.14-11,.14-10-11l0,.06c3.21-2.28,6.69-1.53,10.16-.94a3.17,3.17,0,0,1,1.37,1.06,14.26,14.26,0,0,1,0,10.11C112.16,334.83,112,335.05,111.8,335.28Z"/><path class="cls-25" d="M55.82,257.28h-1c-10.7,0-10.7,0-10-11l-.06.11c3.52-2.34,7.17-1.94,10.88-.56,2.44,3.42,1.86,7.06.79,10.74Z"/><path class="cls-11" d="M234.69,246.3c0,11,0,11-11,11l.13.13c-1.16-3-.31-6.15-.52-9.21-.15-2.13,1.33-2.88,3.05-3.12,2.93-.41,5.9-.75,8.45,1.35Z"/><path class="cls-26" d="M245.8,11.42c11.1-.17,11.1-.17,11,11l0,0a9.76,9.76,0,0,1-11,0l0,0a9.76,9.76,0,0,1,0-11Z"/><path class="cls-27" d="M200.69,279.4a61.64,61.64,0,0,0,.19-6.92c-.24-3,.41-4.34,3.92-4.27,7.94.17,7.94,0,7.06,11.16Z"/><path class="cls-28" d="M223.59,22.34l-11.16.13a74.31,74.31,0,0,1,0-10.76l11.18-.3.6.67c1.3,3.51,1.8,7-.61,10.28Z"/><path class="cls-13" d="M67,278.35q0-5-.08-10l.79-.43a8.92,8.92,0,0,1,1.79,0c1.5.06,3,0,4.5.2,4.2.45,4.19,3.53,4.17,6.65s-1.67,4.46-4.77,4.08C71.24,278.57,69,279.31,67,278.35Z"/><path class="cls-29" d="M256.73,145.38c0,24.41-.1,48.81.17,73.21.05,4.35-1.25,5.5-5.22,4.92a47.42,47.42,0,0,0-6-.15l.09,0a1.09,1.09,0,0,1,.41-1.59c7.95-2.37,8-2.37,8-10.92q0-28.59,0-57.18c0-2.63-.35-5.33,1-7.81a1.1,1.1,0,0,1,1.6-.41Z"/><path class="cls-30" d="M112.76,335.51c.1,9.79.1,9.79,10,9.79,12.9,0,25.81,0,38.71,0,1.75,0,3.67-.64,5.21.83-17.39.08-34.79.14-52.19.29-2.09,0-3-.44-2.84-2.72.2-2.81.08-5.63.1-8.45l0,.09C112.16,335,112.49,335,112.76,335.51Z"/><path class="cls-31" d="M188.78,324.16c0-5.28-.16-10.58,0-15.85.12-3.32-.33-5.18-4.44-5.13-3.81,0-5,1.3-4.69,4.91.15,2,.79,4.31-.76,6.21a.68.68,0,0,1-.45-.63c0-.28.05-.42.13-.42a8.46,8.46,0,0,0,.15-1c.32-10.66.32-10.66,11.33-10-.11,6-.14,12.09-.36,18.12C189.67,321.64,190.69,323.32,188.78,324.16Z"/><path class="cls-32" d="M245.58,10.45a3.9,3.9,0,0,1-.71-1.26c-1-7.7-1-7.7-8.66-7.7h-1.48c-9.92,0-9.92,0-10,9.72-.22.5-.54.58-1,.23l-.14,0C223.4.29,223.4.29,234.43.29h1.5C246.06.29,246.06.29,245.58,10.45Z"/><path class="cls-33" d="M66.88,268.35c-11.08,0-11.08,0-11.06-11.07l0,.15c3.67-2.33,8-2.94,10.95,0s2.34,7.27,0,10.95Z"/><path class="cls-34" d="M189.77,67.37l-.17,1a4.23,4.23,0,0,1-1.68,1c-6.65,1.88-6.52,1.88-6.72,8.71-.1,3.72,1.1,7.68-1.45,11.11l-1.06.16c0-5.44.51-10.93-.06-16.3s1.54-6.56,6.2-5.86A33.86,33.86,0,0,0,189.77,67.37Z"/><path class="cls-35" d="M189.94,300.35c9.81,0,9.71,0,9.87-9.9.05-3.36-1-6.86.84-10.09-.05,7.28,1.14,14.6-.67,21.83-2.51-.86-5.11-.15-7.65-.42C191.36,301.67,189.88,302.26,189.94,300.35Z"/><path class="cls-31" d="M78,44.53l-1.23-.09c-2.47-3.44-1.3-7.38-1.39-11.09-.18-7.72-.06-7.72-7.51-8.94a2.85,2.85,0,0,1-1.3-1.05c0-.28.11-.56.17-.84,11.12-.13,11.11-.13,11.13,11.13C77.91,37.28,78,40.91,78,44.53Z"/><path class="cls-36" d="M34.79,10.46H33.72C32.93.29,32.93.11,43.12.38c4.17.1,8.56-1.46,12.54,1.09-5.14,0-10.31.32-15.42-.07C35.75,1.05,34.14,2.65,34.8,7A22.47,22.47,0,0,1,34.79,10.46Z"/><path class="cls-37" d="M266.76,44.37c0-5.1-.27-10.22,0-15.31.26-4.12-.69-6.37-5.33-5.63-1.24.2-2.66.34-3.7-.8,10.15-.48,10.13-.48,10.16,9.54,0,4.12.1,8.25.15,12.38Z"/><path class="cls-38" d="M67,278.35a31.3,31.3,0,0,1,4.44,0c4.38.66,5.86-1.07,5.51-5.45-.22-2.83-1.19-3.73-3.87-3.63-1.74.06-3.65.62-5.2-.78,3.29-2.49,7.26-2.83,9.88-.09,2.89,3.05,2.34,7.29,0,11l.15-.05C74.25,278.87,70.43,280.58,67,278.35Z"/><path class="cls-39" d="M55.82,11.5c11.09-.27,11.09-.27,11,11l0-.06a1,1,0,0,1-1.39-.15c-.13-6.14-3.16-9.38-9.41-9.42a.94.94,0,0,1-.17-1.38Z"/><path class="cls-2" d="M212.43,11.71V22.47a3.05,3.05,0,0,1-.61-.27C212.17,18.71,211.17,15.15,212.43,11.71Z"/><path class="cls-40" d="M200.71,100.48c0-.66.06-1.33.12-2,.26-2.78-1.1-6.1.67-8.21s5-.67,7.61-.79c2.2-.1,2.86-1.08,2.83-3.1-.06-4.48.25-9-.09-13.44-.32-4.23.79-6.41,5.39-5.59.65.11,1.34-.07,2,0,3.52.51,4.58-1,4.48-4.47-.16-6.32,2.93-8.32,9.18-6.58,2.44.68,1.75,2.5,1.81,4,.28,6.89.25,7.06,6.8,7,3.2,0,4.34.81,4.31,4.17-.19,17.27-.15,34.55-.19,51.82l-.53.62c-6.21.19-10.23,2.52-9.55,9.61.06.61-.59,1.14-1.15,1.54-3.66,1.14-7.27,1.69-10.67-.75-.58-3.59.72-7.31-.81-10.82-3.27,2-6.62,1.87-10,.39-2.53-3.65-1.65-7.66-1.2-11.62-3.49-1.4-7.19-.09-10.73-.81C198.43,107.85,198.62,104.19,200.71,100.48Z"/><path class="cls-40" d="M34,123.34c-.12-17.62-.19-35.24-.39-52.86,0-3.43,2.11-3.07,4.3-3.12,6.72-.13,7.06-.16,6.71-6.53-.26-4.61,2.13-4.61,5.44-4.58s6.6-.29,5.72,4.69c-.92,5.21,1.19,7.35,6.42,6.43,3.81-.67,4.91,1,4.68,4.72-.3,4.64,0,9.31-.1,14,0,2.14.39,3.27,3,3.46,8,.58,8,.7,8.14,8.63,0,.83.14,1.65.21,2.48a11.11,11.11,0,0,1-.18,10.86c-3.57.76-7.32-.79-10.82.84,1.69,3.75,2.08,7.44-.43,11l.06-.1c-6.64.76-10.38,4.41-11,11.12l.07-.08c-3.43,2.48-7.06,1.93-10.73.7-.11-.11-.28-.2-.35-.34A26.28,26.28,0,0,0,34,123.34Z"/><path class="cls-41" d="M178.6,268.43l-11-.07c-3.44,2.49-7.37,1.22-11.1,1.45-11.14.19-22.29.21-33.43,0-3.77.11-7.54.14-11.31,0s-7.7.9-11.27-1.26c-1.71-3.78-2.09-7.53.25-11.22,5.66,0,11.33-.2,17,.09,3.84.19,5.76-.89,5-5-.94-5.18,1.29-6.56,6.28-6.27,7.3.43,14.65.32,22,0,4.35-.18,6.36,1.26,5.68,5.66s1.06,5.85,5.49,5.55c5.47-.38,11-.06,16.47,0C181,261.09,181.1,264.77,178.6,268.43Z"/><path class="cls-3" d="M100.79,268.34l10.95,0c2.52,3.35,1.33,7.22,1.51,10.89s.13,7.32,0,11c0,1.15.07,2.31.07,3.47,0,6.11,0,6.24,6.31,7.25,3.61.57,4.55,2.81,4.64,5.92.07,2.47.5,4.39,3.62,4.93,7.73,1.34,9.49,5.51,5.72,12.9-7.33,1.71-14.63,2.33-21.88-.38l.06.06c-.49-6.87-4.4-10.37-11-11.18-1.17-3.67,1.24-7.8-1.46-11.28-.14-.09-.28-.24-.42-.25-9.22-.84-9.22-.84-9.21-10.49,0-3.94,0-7.87.06-11.81A24.17,24.17,0,0,0,100.79,268.34Z"/><path class="cls-7" d="M77.73,279.38a8,8,0,0,0,.15-1c.3-10.41.3-10.41-10-9.91l-1.1-.11c.25-11.37.25-11.37-11-11q0-5.53,0-11.06c5-3.09,10.63-1.61,15.9-1.45,5.67.17,11.38.77,17,1.47L89,279.5Z"/><path class="cls-42" d="M44.7,224.42c-3.47-2-7.31-.18-10.88-1.1l.12-56a10,10,0,0,1,10.86.18l.21,56A.67.67,0,0,1,44.7,224.42Z"/><path class="cls-43" d="M245.92,222.4a2,2,0,0,0-.12,1l-10.94.15q-.06-28-.11-56.05c3.75-2.38,7.53-2.22,11.35-.16,1.4,2.06,1.24,4.42,1.24,6.72q.06,20.85,0,41.71C247.34,218.05,247.49,220.42,245.92,222.4Z"/><path class="cls-44" d="M234.79,246.42c-13.84-.25-11-2.77-11,11l-1-.25c-.3-10.85-.3-10.87-11-10.84-7.28,0-14.57.1-21.86.16.36-.32.75-.94,1.06-.9,7,.92,11.47-.69,9.92-9.2-.38-2,1.81-1.92,3.28-1.93,5.29,0,10.58-.08,15.87,0,2.42,0,3.51-.67,3.67-3.34.45-7.8.57-7.79,8.52-7.73.82,0,1.65.05,2.48.08Z"/><path class="cls-45" d="M144.84,134.36c11.91.21,11.91.21,11.91,12.18,0,9-.23,18,.1,27,.16,4.68-1.47,6.43-6,5.91a47.9,47.9,0,0,0-6,0l-.67-.69a8.58,8.58,0,0,1-.89-4.31q-.12-17.53,0-35.08a8.49,8.49,0,0,1,.9-4.31Z"/><path class="cls-44" d="M44.7,224.42a2.23,2.23,0,0,0,.31-.93c.84,0,1.67-.09,2.5-.1,7.8-.07,7.91-.07,8.25,7.58.11,2.55.91,3.56,3.51,3.49,4.82-.13,9.65.08,14.47-.08,2.89-.09,4.15.7,4.17,3.89,0,6.94.23,6.93,7.19,7.14,1.29,0,2.71-.35,3.66,1l-32.94,0a50.84,50.84,0,0,0-11,0Z"/><path class="cls-45" d="M133.77,179.41c-11-.12-11-.12-11-11.34,0-9.43.25-18.87-.11-28.28-.17-4.5,1.32-6,5.61-5.42a39.64,39.64,0,0,0,5.45,0l.67.69a9.57,9.57,0,0,1,.91,4.85q.08,17,0,33.93a9.93,9.93,0,0,1-.88,4.86Z"/><path class="cls-46" d="M100.64,212.32c11.15.21,11.15.21,11.15,11.23,0,6-.27,12,.09,17.91.25,4.14-1.36,5.3-5.13,4.89a56.59,56.59,0,0,0-6,0l0,0-.2-25c-1.79-2.69-1.36-5.53-.53-8.39Z"/><path class="cls-47" d="M100.61,190.68l0,21.64.13,0a33.53,33.53,0,0,1-22.91,0l.09.07c-2.48-3.44-2-7-.58-10.7,2.76-2.8,6.72-.81,9.75-2.46,1.2-.89,1.21-2.18,1.33-3.5.55-6,1.42-6.78,7.54-6.63a9.13,9.13,0,0,1,3.36.48A3.37,3.37,0,0,1,100.61,190.68Z"/><path class="cls-48" d="M178.79,246.33c-11-.08-11-.08-11-11.32,0-6,.2-11.95-.07-17.91-.18-3.69,1-5.2,4.74-4.77a51.57,51.57,0,0,0,6.46,0l.58.69c.95,3.52,1.45,7-.62,10.34q-.06,11.52-.1,23Z"/><path class="cls-49" d="M178.88,212.33l-.06-21.9c3.39-2.25,7-1.62,10.56-.7,1.68,1.2,1.8,3.07,1.71,4.82-.2,3.91,1.37,5.79,5.4,5.48a7.59,7.59,0,0,1,3.82.65,2.87,2.87,0,0,1,1.2,1.24c.87,3.58,1.48,7.13-.77,10.47l0,0a32.15,32.15,0,0,1-22-.05Z"/><path class="cls-50" d="M100.79,268.34a5.35,5.35,0,0,0-.18,1c-.37,10.26-.37,10.26-10.88,10.06,0-9.1.26-18.2,0-27.29-.14-4.42.95-6.54,5.69-5.81a38,38,0,0,0,5.45.11l0,0v11Q100.78,262.84,100.79,268.34Z"/><path class="cls-48" d="M178.6,268.43l.06-11c0-3.69.09-7.38.13-11.07l0,0H189.8q0,16.5,0,33C179,279.58,179,279.58,178.6,268.43Z"/><path class="cls-51" d="M100.61,190.68a4.31,4.31,0,0,1-.84-.4c-2.08-.84-4.28-.52-6.36-.34-3.45.31-4.92-1.1-5-4.43,0-1.46.15-3-1.33-4-3.17-1.28-6.47-.39-9.7-.68-3.55-.14-7.27,1-10.54-1.38,5.26-2.18,10.77-.93,16.13-.91,4.45,0,6.59-1,5.82-5.78s1.94-5.45,5.94-5.44,6.38.58,6.08,5.4C100.49,178.68,100.67,184.69,100.61,190.68Z"/><path class="cls-42" d="M178.81,189.44c0-5.76.16-11.52-.11-17.27-.17-3.59.85-5.24,4.66-4.8a57.07,57.07,0,0,0,6.41,0l0,0c0,11,.05,10.83,10.85,11.08,3.7.09,7.58-1.2,11.14.92-3.27,2.38-7,1.3-10.57,1.44-.66,0-1.32,0-2,0-6.72,0-6.72,0-8.31,6.76a3.52,3.52,0,0,1-1.26,2.08C186,189.83,182.4,190.28,178.81,189.44Z"/><path class="cls-52" d="M77.92,111.49l.18-10.86,21.69,0c1.41,1.93.76,4.17,1,6.28.37,3.38-.81,4.77-4.42,4.62C90.22,111.31,84.07,111.5,77.92,111.49Z"/><path class="cls-45" d="M133.74,134.38c0-6.29.2-12.58,0-18.85-.11-3.41,1.3-4.43,4.39-4.09,2.89.32,6.75-1.2,6.7,4.07-.07,6.28,0,12.57,0,18.85l-.08.08a10.14,10.14,0,0,1-10.94,0Z"/><path class="cls-53" d="M77.86,212.25l22.91,0-.15,9.1c-1.05,1.83-2.7,2.1-4.65,2.05-4.48-.11-9-.26-13.43,0-3.72.25-5.2-1-4.76-4.75A58.11,58.11,0,0,0,77.86,212.25Z"/><path class="cls-45" d="M189.77,167.41c0-11,0-11,10.83-11a31.54,31.54,0,0,0,5,0c5.08-.81,6.69,1.16,6.36,6.25-.23,3.53-.9,5.07-4.76,4.87-5.79-.31-11.61-.09-17.41-.1Z"/><path class="cls-41" d="M178.81,212.32l22,.05c0,11,0,11-11.09,11-3.62,0-7.24,0-10.85,0Z"/><path class="cls-54" d="M200.71,100.48l.24,11c-5.65,0-11.31-.21-16.94.13-4.13.25-5.85-1-5.29-5.26a41.69,41.69,0,0,0,.08-5.48Z"/><path class="cls-55" d="M44.8,167.46l-10.86-.18q0-10.84-.07-21.71c3.26-2.46,6.76-1.78,10.28-.79l.66.61Q44.81,156.43,44.8,167.46Z"/><path class="cls-56" d="M245.61,167.41l-10.86.06q0-11,0-22.06l.63-.59a14.84,14.84,0,0,1,10.26.13,3.54,3.54,0,0,1,1.07,1.47c1.08,5.82.5,11.68.42,17.53A4.13,4.13,0,0,1,245.61,167.41Z"/><path class="cls-51" d="M77.77,167.41a34.32,34.32,0,0,0-5,0c-4.76.7-6.39-1.1-6.13-6,.2-3.68.79-5.5,5-5.16a134.82,134.82,0,0,0,13.93.06c4.2-.11,3.32,2.94,3.17,5.19s1.63,5.81-3,5.82Z"/><path class="cls-57" d="M66.89,179.44h11c1.22,1.32,1.32,3,1.34,4.62,0,2.61,1.14,3.88,3.87,3.92s4.36-1,4.35-4c0-1.64.12-3.3,1.35-4.61,1.79,1.57,1.07,3.7,1,5.53-.22,3.37.92,4.77,4.42,4.51,1.85-.14,3.94-.74,5.62.81-3.11.4-6.92-1.2-9.19.75s-.45,5.66-.9,8.57a5.52,5.52,0,0,1-.9,1.61,4.78,4.78,0,0,1-1.22-2.64c-1.15-6.73-1.16-6.73-8.08-6.75-.49,0-1,0-1.48,0-3.34-.08-6.7.3-10-.41a3.07,3.07,0,0,1-1.39-1Z"/><path class="cls-58" d="M200.72,179.42l11,0c0,3.63,0,7.27.07,10.9-3.37,2.61-7.28,1.37-11,1.56-3.71-.19-7.6,1-11-1.46l-11,0a4.1,4.1,0,0,1,0-1l11-.05a3.13,3.13,0,0,1,.8-.58C197,186.53,198,185.65,200.72,179.42Z"/><path class="cls-59" d="M211.68,112.26c1.7,3.54-.13,7.43,1.12,11,2,3.68,2.24,7.36,0,11a5.23,5.23,0,0,1-.89-1.65c-.36-2.79,1-6.15-.67-8.26-1.83-2.29-5.37-.43-8-1.07-4.27-1-1.88-4.56-2.33-7-.37-2-.17-4.08,2.88-4C206.36,112.45,209,112.3,211.68,112.26Z"/><path class="cls-60" d="M200.74,212.39c0-3.68,0-7.37,0-11,3.7-2.27,7.4-2.05,11.11,0a2.93,2.93,0,0,0,.93.08l0,0a3.82,3.82,0,0,1-.15,1.46c-1.63,2.91,1,7.47-2.12,9C207.83,213.24,204,212.31,200.74,212.39Z"/><path class="cls-61" d="M77.77,201.34c.06,3.66.11,7.32.18,11-11.12.2-11.12.2-11.13-10.94l.6-.58a15,15,0,0,1,9.74,0Z"/><path class="cls-62" d="M212.76,201.4c0-2.32.11-4.65-.06-7-.2-2.85.62-4.14,3.83-4.16,6.83,0,9,2.69,7.16,9.24-.5,1.74-1.64,1.84-3,1.85h-7.95Z"/><path class="cls-40" d="M211.83,201.32l-11.11,0,.07.08c-2.21-3.69-2.3-7.37.07-11l10.95-.1C211.82,194,211.82,197.64,211.83,201.32Z"/><path class="cls-63" d="M66.82,201.38c-1.66,0-3.34-.14-5,0-4,.38-6.35-.21-6.22-5.42.12-4.72,1.55-6.25,6-5.65a39.48,39.48,0,0,0,5,.09l.31,0a10.35,10.35,0,0,1,0,10.94Z"/><path class="cls-41" d="M223.72,134.31l11,0c2.42,3.69,2.18,7.38,0,11.09l0,0C223.66,145.4,223.66,145.4,223.72,134.31Z"/><path class="cls-63" d="M44.82,134.34l11-.05c.14,11.16.14,11.16-11,11.1h0C42.69,141.71,42.51,138,44.82,134.34Z"/><path class="cls-63" d="M55.7,134.37c0-.33.07-.66.07-1C56,123,56,123,66.73,123.25,67,134.51,67,134.51,55.7,134.37Z"/><path class="cls-64" d="M66.67,123.35q.21-5.5.43-11c2.3,0,4.61.22,6.89,0,3.09-.26,3.88,1.08,3.9,4,.06,7,.19,7-6.79,7C69.62,123.38,68.15,123.36,66.67,123.35Z"/><path class="cls-43" d="M144.82,179.43c0,1.49,0,3,0,4.46,0,6.91,0,6.8-6.83,6.54-2.88-.11-4.31-1.11-4.19-4.1.09-2.3,0-4.61,0-6.92l.09-.09a10.22,10.22,0,0,1,10.88,0Z"/><path class="cls-52" d="M212.76,134.3c0-3.67,0-7.35,0-11l10.1.21c0,.49-.07,1-.08,1.46C222.65,134.66,222.66,134.66,212.76,134.3Z"/><path class="cls-65" d="M11,122.46q0-38.52,0-77c10.84.18,10.84.18,10.84,11.1q0,29.41,0,58.83c0,7.73.83,7-6.86,7Z"/><path class="cls-2" d="M44.82,134.34c0,3.69,0,7.37,0,11.06l-10.94.17c-1.53-7.32-.85-14.75-1.06-22.14l1.21-.09C44.55,123.22,44.55,123.22,44.82,134.34Z"/><path class="cls-66" d="M55.86,11.51a2.51,2.51,0,0,0,.12.94c1.77,2.83,1.29,5.85.74,8.88a2.67,2.67,0,0,1-1,1.28l-22.06-.32c-.09-10.87-.09-10.88,10.83-10.87C48.25,11.43,52.06,11.48,55.86,11.51Z"/><path class="cls-14" d="M67,23.44c9.82.1,9.82.1,9.82,10.06V44.44c-9.56.58-9.56.58-10.12-10.93C64.8,30.09,64.51,26.72,67,23.44Z"/><path class="cls-67" d="M67,23.44l-.3,10.07c-10.54-.11-10.54-.11-11-10.9l.24-.23a9.3,9.3,0,0,1,9.93-.08,4.66,4.66,0,0,0,1,.16Z"/><path class="cls-68" d="M267.87,122.39l-11.14,0h0q0-34.84,0-69.69c0-8-.9-7.2,7.12-7.26,1.33,0,2.65,0,4,0,1.62,2,1.48,4.33,1.49,6.64q0,31.8,0,63.62C269.33,118.06,269.48,120.43,267.87,122.39Z"/><path class="cls-69" d="M267.87,122.39q0-38.44,0-76.9l1,.11a3.34,3.34,0,0,0,.93.33c8.41.54,8.41.54,8.41,8.86q0,30.65,0,61.3c0,6.57.48,5.78-5.92,5.83a7.28,7.28,0,0,0-3.43.36Z"/><path class="cls-51" d="M256.75,145.47l-1,.11a9.29,9.29,0,0,1-10-.11l0,0a34.77,34.77,0,0,1,0-22.15h0c3.72-.08,7.53.93,11.12-.86h0l.09,1.13Q256.78,134.5,256.75,145.47Z"/><path class="cls-66" d="M223.75,11.44a4.57,4.57,0,0,0,1-.23l21,.26c0,3.65,0,7.31,0,11l-22.2-.07Z"/><path class="cls-13" d="M179.75,89.29c0-5.29.23-10.58-.06-15.85-.21-3.85.95-5.57,5-5a35.54,35.54,0,0,0,4.95,0c.06,5.48-.11,11,.25,16.43.25,3.71-.85,5.22-4.64,4.65A47.21,47.21,0,0,0,179.75,89.29Z"/><path class="cls-67" d="M245.78,22.41l11,0q0,5.52-.1,11C245.63,33.42,245.63,33.42,245.78,22.41Z"/><path class="cls-70" d="M268.86,122.28c.26-.21.49-.55.78-.6,8.08-1.4,8.08-1.39,8.08-10,0-19.63-.16-39.26.12-58.88.07-4.91-1-7.27-6.25-6.33a2.64,2.64,0,0,1-2.72-.83c9.91-1.14,9.91-1.14,9.91,8.4,0,20.63.05,41.26,0,61.88,0,7.64,1.37,6.63-6.94,6.71A27,27,0,0,1,268.86,122.28Z"/><path class="cls-40" d="M133.77,324.26c0-.83.07-1.67.07-2.5,0-8.1,0-8.21-8-8.51-2.41-.09-3.3-.81-3.08-3.17.14-1.49-.11-3,.05-4.49.3-2.71-.53-4.08-3.5-3.68-1.31.18-2.68-.09-4,.07-2.81.34-3.94-.7-3.66-3.59.26-2.65.17-5.32.24-8a4.15,4.15,0,0,1,3.52-1.36c4.71.44,6.5-1.77,6.09-6.28a5.59,5.59,0,0,1,.78-3.28,3.35,3.35,0,0,1,1.39-1.08c9.68-1.21,19.38-.55,29.07-.39a4.63,4.63,0,0,1,4.53,3.22c1.49,2.27-.54,5.67,1.62,7.31,1.86,1.4,4.82.06,7.19,1a3,3,0,0,1,1.51,1.69c0,.5,0,1,0,1.5,0,8.55.06,8.62-8.48,9.18-2.07.14-3.1.62-2.84,2.87.15,1.31-.11,2.68.06,4,.45,3.38-.68,5-4.31,4.47-1-.15-2,.11-3-.05-3.38-.54-4.42,1-4.07,4.16.24,2.3.09,4.64.11,7a2.82,2.82,0,0,1-1.28.93c-3.19.51-6.38.87-9.5-.36C134.13,324.66,134,324.46,133.77,324.26Z"/><path class="cls-71" d="M167.77,324.25q0,5.55,0,11.1l-23-.19c-2.32-3.59-2.15-7.21-.11-10.84l.37,0Z"/><path class="cls-72" d="M167.58,291.2l-.8-.88c-.28-.6-.05.23-.31-.39a21.85,21.85,0,0,0-10.1-10.67c-1.51-3.62-1.81-7.2.26-10.72l11-.18Z"/><path class="cls-73" d="M178.6,313.25c.11.35.22.7.32,1.05,0,3.35-.08,6.71-.11,10.06l-11.11-.06C167.52,313.19,167.52,313.19,178.6,313.25Z"/><path class="cls-74" d="M111.73,324.32l22-.06.27,0c1.73,3.71,2,7.37-.29,11l-21,.32-1-.14C111.76,331.69,111.74,328,111.73,324.32Z"/><path class="cls-75" d="M133.75,335.19c.1-3.65.19-7.31.29-11l10.69.1q.06,5.42.11,10.84Z"/><path class="cls-76" d="M100.76,313.2c10.87.1,10.87.1,11,11.18h-11C100.77,320.64,100.76,316.92,100.76,313.2Z"/><path class="cls-4" d="M245.73,145.47l10,.11q0,34.86,0,69.72c0,7.76.81,7-6.83,7.07l-3,0q-.16-27.5-.31-55Z"/><path class="cls-14" d="M61.15,258.43c3.35-.61,4.78.49,4.78,4.16s-.91,4.94-4.73,4.89c-3.53-.06-4.53-1.22-4.47-4.62S57.42,257.62,61.15,258.43Z"/><path class="cls-77" d="M65.85,22.3l-9.93.08L56,12.45C65.73,12.55,65.73,12.55,65.85,22.3Z"/><path class="cls-48" d="M245.64,123.3q0,11.08,0,22.15h-11l0-11.09C234.83,123.32,234.83,123.32,245.64,123.3Z"/><path class="cls-78" d="M156.63,268.54l.16,10.78a2.22,2.22,0,0,1,0,3.11c-1-2.38-2.55-3.22-5.26-3.16-9.55.22-19.11.09-28.67.09a9.56,9.56,0,0,1,.06-10.91Z"/><path class="cls-42" d="M122.87,268.45l-.06,10.91h0a10.07,10.07,0,0,1-10.91,0c-.05-3.68-.11-7.35-.16-11Z"/><path class="cls-79" d="M111.9,279.38l10.91,0c-.08,11-.08,11-10.93,11.05Q111.88,284.89,111.9,279.38Z"/><path class="cls-80" d="M144.74,179.35l-10.88,0q0-22.44,0-44.87h10.94Q144.75,156.89,144.74,179.35Z"/><path class="cls-53" d="M78,190.41c11-.14,11-.14,10.78,10.8l-11,.13.07.08C75.66,197.72,75.45,194,78,190.41Z"/><path class="cls-81" d="M200.86,190.39c0,3.68-.05,7.35-.07,11l-.5,0c-10.47-.21-10.47-.21-10.48-11Z"/><path class="cls-82" d="M88.77,179.43c0,2.13-.1,4.27.06,6.39.22,2.86-1.13,3.57-3.78,3.64-7.25.18-7.25.29-7.23-7.06,0-1,0-2,0-3Z"/><path class="cls-83" d="M200.72,179.42c.13,10,.13,10-10.94,10C189.73,179.23,189.73,179.23,200.72,179.42Z"/><path class="cls-49" d="M78,190.41q-.07,5.51-.16,11l-11-.08c0-3.65,0-7.29,0-10.94Z"/><path class="cls-67" d="M156.74,282.43c0-1,0-2.08,0-3.11,10.22.11,10.22.11,10,11-.66,0-1.32.06-2,.07C156.61,290.47,156.61,290.47,156.74,282.43Z"/></g></g></svg>