<svg xmlns="http://www.w3.org/2000/svg" viewBox="0 0 904.06 165.17"><defs><style>.cls-1{fill:#f1ac65;}.cls-2{fill:#c16e60;}.cls-3{fill:#f8f8f8;}.cls-4{fill:#0d202e;}.cls-5{fill:#0c1f2d;}.cls-6{fill:#0c1d2d;}.cls-7{fill:#f8f8f9;}.cls-8{fill:#0f202f;}.cls-9{fill:#d38a6e;}.cls-10{fill:#132331;}.cls-11{fill:#0e1e2e;}.cls-12{fill:#102130;}.cls-13{fill:#0d1f2e;}.cls-14{fill:#0d202f;}.cls-15{fill:#112231;}.cls-16{fill:#0e202e;}.cls-17{fill:#0e202f;}.cls-18{fill:#0f202e;}.cls-19{fill:#a34d5c;}.cls-20{fill:#a14d5b;}.cls-21{fill:#11212f;}.cls-22{fill:#0e1d2c;}.cls-23{fill:#0b1d2c;}.cls-24{fill:#0c1d2c;}.cls-25{fill:#0d1e2d;}.cls-26{fill:#0b1d2b;}.cls-27{fill:#0d1d2c;}.cls-28{fill:#112130;}.cls-29{fill:#000311;}.cls-30{fill:#00010d;}.cls-31{fill:#00020f;}.cls-32{fill:#010614;}.cls-33{fill:#00020b;}.cls-34{fill:#000110;}.cls-35{fill:#000513;}.cls-36{fill:#000613;}.cls-37{fill:#000414;}.cls-38{fill:#000410;}.cls-39{fill:#00020d;}.cls-40{fill:#513244;}.cls-41{fill:#f6d2a9;}.cls-42{fill:#d38c6e;}.cls-43{fill:#d48c6f;}.cls-44{fill:#f6d1a8;}.cls-45{fill:#d38c6f;}.cls-46{fill:#c26d5f;}.cls-47{fill:#513243;}.cls-48{fill:#c16d5f;}.cls-49{fill:#4f3043;}.cls-50{fill:#c26e60;}.cls-51{fill:#d48d6f;}.cls-52{fill:#f5d0a7;}.cls-53{fill:#f6d2a8;}.cls-54{fill:#f6d1a9;}.cls-55{fill:#f4d1a8;}.cls-56{fill:#f7d3a9;}.cls-57{fill:#bf6d61;}.cls-58{fill:#bf6d60;}.cls-59{fill:#ebc8a1;}.cls-60{fill:#f5d2a9;}.cls-61{fill:#f6d3aa;}.cls-62{fill:#f3d0a7;}.cls-63{fill:#f6d3a9;}.cls-64{fill:#f4d0a7;}.cls-65{fill:#d38d6f;}.cls-66{fill:#a24d5c;}.cls-67{fill:#a24c5c;}.cls-68{fill:#d58d6f;}.cls-69{fill:#0f212f;}.cls-70{fill:#000b1b;}.cls-71{fill:#f1ac64;}.cls-72{fill:#d38c70;}.cls-73{fill:#f2ac64;}.cls-74{fill:#f2ad65;}.cls-75{fill:#c26e5f;}.cls-76{fill:#f2ad64;}.cls-77{fill:#0c1f2e;}.cls-78{fill:#a24d5b;}.cls-79{fill:#a24c5b;}.cls-80{fill:#c16e5f;}.cls-81{fill:#f7d4a9;}.cls-82{fill:#a14b5b;}.cls-83{fill:#a04b5b;}</style></defs><g id="Layer_2" data-name="Layer 2"><g id="Layer_1-2" data-name="Layer 1"><path class="cls-1" d="M42.61,154.5c-.6-2.66-.26-5.36-.21-8,0-1.86-.48-2.57-2.38-2.38-.89.09-1.9.37-2.75-.28a2.15,2.15,0,0,1,2.1-.83c1.82,0,2.29-.94,2.27-2.55,0-2.46,0-4.92,0-7.38-.11-4,0-7.92,0-11.87a6.79,6.79,0,0,0-.32-2.8c-.52-.8-1.34-.77-2.13-.75-1.9.05-2.8-.91-2.73-2.75s-.85-2.51-2.61-2.44-3.32,0-5,0-2.94-.7-2.86-2.63-.78-2.74-2.69-2.65a2.48,2.48,0,0,1-2.16-.77,4.26,4.26,0,0,1-.48-2.29c0-8-.1-16.1,0-24.15.11-3.43-.45-6.88.36-10.29a2.27,2.27,0,0,1,2.28-1c2.13.15,2.85-.9,2.67-2.86a3.24,3.24,0,0,1,.24-1.4,1.42,1.42,0,0,1,.46-.59c.31-.09-.1-.12.21-.1,3.35.22,4.85-1.37,4.63-4.68a1.24,1.24,0,0,1,.5-.54,6,6,0,0,1,2.54-.36,1.64,1.64,0,0,0,1.88-1.86c0-1.38-.53-2-1.94-2.06-1,0-2.1.27-2.73-.89,1.5-1.61,3.44-.73,5.18-.92,2.44,0,4.88,0,7.32,0,2.93,0,3-.11,3.05-3.06a3,3,0,0,1,.25-1.61,2.24,2.24,0,0,1,.78-.41,12.7,12.7,0,0,1,3.31-.21q14.87,0,29.72,0a10.79,10.79,0,0,1,3.3.26,2,2,0,0,1,.73.47,3.32,3.32,0,0,1,.48,1.57c.38,3,.38,3,3.26,3,2.22,0,4.44,0,6.66,0,1.77.19,3.73-.71,5.24.92-.7,1.22-1.93.84-3,.93a1.58,1.58,0,0,0-1.66,1.84c0,1,.22,1.78,1.48,2,3.33.6,3.33.65,3.74,3.91a1.49,1.49,0,0,0,.54,1c2.83.68,3.1.49,3.39-2.29.08-.75,0-1.61.86-2,1.64,1.49.75,3.42.94,5.16,0,.4,0,.79,0,1.19,0,3.1,0,3.1,3.08,3.6a2.46,2.46,0,0,1,1.69.78c1,3.41.33,6.89.47,10.34.11,8.09,0,16.17,0,24.26a5.7,5.7,0,0,1-.26,1.88,1.9,1.9,0,0,1-.48.72,1.61,1.61,0,0,1-.86.35c-2.54-.12-4,.75-3.88,3.62.06,1.37-1.21,1.7-2.39,1.75-2.06.09-4.12,0-6.17,0-1.12,0-1.94.24-2.18,1.61-.62,3.47-.67,3.46-4.1,3.58a5.2,5.2,0,0,0-1.41.18,4.67,4.67,0,0,1-.82.2c-1.72,0-3.53.64-5-.73a23,23,0,0,1-.14-10.64c1.06-1.15,2.47-.76,3.77-.85.55,0,1.1,0,1.65,0,4.25,0,4.25,0,4.92-4.08a1.54,1.54,0,0,1,.44-.65c3.63.28,4.85-2.18,5.71-5,.83-.79,1.9-.64,2.9-.68,1.36,0,1.69-.85,1.69-2s-.56-1.86-1.85-1.86-2,.33-2,1.68c-.06,1,.12,2.08-.71,2.9a.49.49,0,0,1-.68-.15c-.76-1.61-.41-3.31-.45-5s.39-3.19-.5-4.66c-1.79-1-3.73-.45-5.59-.49-4.42-.11-5.43-1.56-3.86-5.79,1.4-1.33,3.14-.72,4.75-.84,1.11-.08,2.22,0,3.32,0,1.29,0,1.82-.7,1.83-2s-.62-1.86-1.88-1.84c-.63,0-1.26,0-1.9,0-1.42,0-2.91-.3-4.24.19-1.77.65-.62,2.58-1.33,3.76a4.6,4.6,0,0,1-.4.58,2.8,2.8,0,0,1-2.18.69c-1.93-.11-2.4.93-2.37,2.63,0,2.35.06,4.7,0,7.06,0,.28,0,.57,0,.86-.15,3.38.6,6.8-.51,10.13a2.84,2.84,0,0,1-1.94.75c-2.74.38-2.75.39-2.76,3.22s.06,5.7,0,8.55c-.06,2,.36,3.27,2.69,3.1a2.45,2.45,0,0,1,1.94.75,5.48,5.48,0,0,1,.07,5.23c-3.23,1.24-6.55.72-9.83.37-1.24-.13-1.47-1.37-1.49-2.41,0-2-1.06-2.58-2.89-2.55-3.17.07-6.35,0-9.52,0-1.56,0-2.25.58-2.41,2.19-.27,2.6-.73,3-3.28,3s-5.39.59-8-.56a5.41,5.41,0,0,1-.07-5.22,3.19,3.19,0,0,1,2.62-.87c1.36,0,2-.59,2-2V104a1.79,1.79,0,0,0-2-2.07,3.62,3.62,0,0,1-2.68-.75c-1.19-3.34-.39-6.79-.54-10.18,0-2.68,0-5.37,0-8,0-1.44-.41-2.44-2.13-2.45-1.53,0-2,.78-2.19,2.17-.34,2.8-.6,2.87-3.42,3-2.23.14-4.55-.66-6.68.57-.79,1.38,0,3.1-.93,4.44-.84.78-1.91.67-2.92.69-1.32,0-1.78.72-1.78,2s.52,1.9,1.82,1.92a4.46,4.46,0,0,1,2.74.56,2.78,2.78,0,0,1,.64,2.22c-.11,1.83.7,2.62,2.52,2.49a3.85,3.85,0,0,1,1.86.31,1.22,1.22,0,0,1,.56.54c1,4.36,1,4.26,5.67,4.4,1.76.06,3.51-.71,5.26,0,.61,3.86,1,7.71-.19,11.53a2.64,2.64,0,0,1-2.16.8c-2-.09-2.5,1-2.48,2.83,0,4,.08,8.07,0,12.1q.09,3.52,0,7.05c0,1.73.32,2.91,2.39,2.91.71,0,1.65,0,1.73,1.15a2,2,0,0,1-1,.53c-3.06.68-3,.68-3.1,3.95C43.4,150.62,44.26,152.77,42.61,154.5Z"/><path class="cls-2" d="M48,47.89a3.15,3.15,0,0,1-.44.11,20.12,20.12,0,0,1-10.42.13c-.16-.17-.41-.33-.42-.56-.15-2.68-.9-4.66-4.21-4.54-1.1,0-1.29-1.24-1.35-2.22-.12-1.9-.06-3.81-.05-5.72,0-1.46-.57-2.26-2.1-2.2-2.2.08-3.21-1-3.16-3.17,0-1.15-.35-2-1.75-2s-2,.73-2,2.05c0,1.84-.67,3.13-2.74,3.09s-2.54,1-2.52,2.85c.05,6.51,0,13,0,19.53a7.39,7.39,0,0,1-.45,3.51,1.61,1.61,0,0,1-.65.53C11.6,60,11.6,60,11.6,64.41c0,1.74,0,3.48,0,5.22.15,11.42.05,22.83,0,34.25a2.87,2.87,0,0,1-.91,2.58c-.39-.27-.33-.69-.33-1.07q0-18,.07-36C9.2,67.84,9.83,66,9.69,64.21a20.29,20.29,0,0,1,0-2.34c.06-1.54-.55-2.36-2.18-2.32a3.08,3.08,0,0,1-2.39-.75c-1.7-.11-3.45.49-5.11-.31,1.55-1.39,3.43-.69,5.17-.82,4.08-.24,4.53,1,4.51-4.66,0-8.65,0-17.31,0-26,0-4.51,0-4.51-4.48-4.67C3.43,22.25,1.54,23,0,21.53c1.66-.74,3.38-.23,5.08-.29,1.3-1.23,3.08-.37,4.5-1,1-.67.6-1.71.67-2.6.1-1.25.57-2.3,1.92-2.2,2.8.22,3.56-1.23,3.39-3.66a1.89,1.89,0,0,1,.28-.9,1.47,1.47,0,0,1,.64-.54,25.89,25.89,0,0,1,10,.19,2.44,2.44,0,0,1,.78,2.14c-.16,2.08.81,2.85,2.79,2.67a2.83,2.83,0,0,1,1.8.45,2,2,0,0,1,.54,1c.72,3.41.71,3.41,4.17,4a5.87,5.87,0,0,1,.65.46c1.7,0,3.43-.32,5.12.21-.95,1.57-2.78.47-4,1.33-1.28,2.48-.49,5.09-.47,7.63,0,1,1.17,1,2.07,1.11,2.61.21,3,.6,3.06,3.15.06,1.5,0,3,0,4.5S42.9,42,45,41.9s1.83-1.54,1.86-2.86,0-2.85,0-4.27c0-.92-.09-1.93.85-2.56.69,3.43.19,6.9.27,10.34A4.68,4.68,0,0,1,48,47.89Z"/><path class="cls-2" d="M127.81,21.24c5.51-.22,5.51-.22,5.51,5.31,0,9.84-.08,19.68.05,29.51,0,2.34-.67,3.15-2.92,2.81a18.89,18.89,0,0,0-2.61-.06,5.68,5.68,0,0,1-5.21.32.54.54,0,0,1-.23-.75c1.58-1.16,3.39-.6,5.12-.7h.87c3.82,0,3.82,0,3.82-3.82q0-13.78,0-27.56c0-4,0-4-3.91-4l-.88,0c-4.26.18-4.27.18-4.27,4.42q0,13.88,0,27.75c0,1.25.22,2.55-.59,3.68-1.57,1.94-3.45,1.55-5.39.74-.91-1.08-.72-2.4-.72-3.65,0-6.35,0-12.7,0-19.05,0-2.38.13-3.46-2.87-3.47-1.88,0-2.32-1.36-2.37-2.94,0-1.25-.42-2.14-1.92-2.15-1.34,0-1.73.71-1.88,1.92-.38,3-.43,3.12-3.27,3.22-1.89.06-2.5.88-2.45,2.63s.06,3.65,0,5.48c-.08,1.39-.75,2.37-2.18,2.3-2.45-.12-3.23,1.1-3.11,3.32a2,2,0,0,1-.62,1.51,20.86,20.86,0,0,1-10.47,0,.27.27,0,0,1,0-.23,4.87,4.87,0,0,1,0-5.25l0,0a4.9,4.9,0,0,1,.67-.45c3.92-.63,3.9-.63,3.93-4.75A17.36,17.36,0,0,1,90,32.79a4.3,4.3,0,0,1,.44-.67l0,0c1.31-1.16,3.11-.27,4.51-1.08.87-.74.55-1.76.58-2.68,0-1.58,0-3.17,0-4.75,0-1.79.84-2.72,2.6-2.59,2.14.16,2.83-.83,2.66-2.83-.12-1.46.26-2.9,2-2.84,2.54.09,3.4-1.1,3.22-3.43a2.19,2.19,0,0,1,.23-.92,1.4,1.4,0,0,1,.56-.62,30.83,30.83,0,0,1,9.87-.14,1.56,1.56,0,0,1,.65.48c-.15,3.57,1.9,4.92,5.13,5.08a2.06,2.06,0,0,1,.41.84c.72,3.51.72,3.51,4.26,4.12C127.39,20.93,127.6,21.08,127.81,21.24Z"/><path class="cls-3" d="M95.34,144.07l-4.72,0a2.89,2.89,0,0,1-1.24.61c-3.12.56-3.12.57-3.59,3.74a2.31,2.31,0,0,1-.33.87c-.16.17-.35.42-.56.4-3.49-.28-4.58,1.73-4.63,4.77a1.48,1.48,0,0,1-.65.54c-3.51.38-7,.74-10.48-.21-1.17-1.37-.88-3-.61-4.5s1.59-1.64,2.78-1.62c2,0,2.91-.86,2.7-2.87-.15-1.42.43-2.16,1.92-2.36,3.34-.47,3.33-.52,3.34-3.87,0-.32,0-.63,0-1,.06-2.67,0-5.34,0-8a4.56,4.56,0,0,1,.55-2.73c1.67-1.06,3.42-.84,5.19-.33a2.29,2.29,0,0,1,.87,2.29c-.15,2.09.87,2.81,2.81,2.66a3.2,3.2,0,0,1,1.6.3,1.36,1.36,0,0,1,.56.58c.82,2.92-.06,5.94.57,8.86.45.92,1.32.66,2.07.77S95.11,143,95.34,144.07Z"/><path class="cls-4" d="M85.22,42.6c0,1.75,0,3.5,0,5.25L48,47.89c0-1.78,0-3.55,0-5.33Z"/><path class="cls-5" d="M0,21.53l5.24.13a4.72,4.72,0,0,1,.7,3.17q0,15.2,0,30.38a4.72,4.72,0,0,1-.7,3.17L0,58.49Z"/><path class="cls-6" d="M10.72,106.46l0-34.59c0-.86.08-1.73.12-2.59A4.15,4.15,0,0,1,14,68.64a2.17,2.17,0,0,1,2.24,2.27c.08,1.58,0,3.16,0,4.75q0,13.77,0,27.55c0,1.16.27,2.4-.61,3.41Z"/><path class="cls-7" d="M101.4,128.08c-.14,1.7.52,3.47-.39,5.11-.87-.8-.71-1.88-.74-2.89-.06-1.38-.86-1.69-2-1.67s-1.76.47-1.82,1.67c0,1,.11,2.08-.72,2.9l.06,0a4.73,4.73,0,0,1-5.28,0l0,0a32.82,32.82,0,0,1,0-15.73l.08.05a84.64,84.64,0,0,1,13.59-.8c1.84.1,2.77.94,2.69,2.82a5.71,5.71,0,0,1-.42,3c-1.67,1-2.11,1.06-4.86.66A4.7,4.7,0,0,1,101.4,128.08Z"/><path class="cls-8" d="M80,159.85c-.34,1.71.5,3.53-.47,5.19-5-.4-10.1-.1-15.16-.17-3-.05-6-.06-9,0-1.29,0-1.94-.3-1.79-1.71a28,28,0,0,1,.14-3.3c1.2-1.06,2.68-.72,4.06-.75,2,0,3.94-.08,5.9,0,1.79,0,3.58-.06,5.37,0,3.54.13,7.11-.48,10.63.38Z"/><path class="cls-9" d="M15.7,106.62q0-13.31.1-26.62c0-1.9,0-3.81,0-5.71,0-4.84,0-4.84-4.89-5,0-2.7.13-5.4,0-8.08-.11-1.91.55-2.62,2.42-2.38a20.8,20.8,0,0,0,2.37,0,3.21,3.21,0,0,1,.72,2.39,61.67,61.67,0,0,0,.46,8.15c.11,3.49.09,7,0,10.48.1,8.83.12,17.67,0,26.5.1,2.74.05,5.49,0,8.23a3.27,3.27,0,0,1-.74,2.63c-1-2.31-.22-4.73-.41-7.09C15.61,109,15.7,107.79,15.7,106.62Z"/><path class="cls-10" d="M47.74,32.21c0,2.92-.12,5.86,0,8.78.09,2.43-1.64,1.57-2.77,1.64s-2.64.5-2.5-1.69-.06-4.59.06-6.88c.09-1.58-.49-2-2-2-3.33,0-3.42,0-3.3-3.42.08-2.32-.51-4.68.38-7,1.16,1.55.67,3.35.7,5,.07,3.57,0,3.57,3.31,4.49a2.91,2.91,0,0,1,.82.46C44.1,32.62,46,31.67,47.74,32.21Z"/><path class="cls-11" d="M117.15,106.49c0,3-.09,6,.06,9,.08,1.66-.56,2-2,1.89a28,28,0,0,0-3.3.08l-.3-.34c-.48-3.54-1-7.07.33-10.55l0,0c1.54-1.17,3.2-.84,4.86-.38Z"/><path class="cls-12" d="M16.12,117.23V106.47c1.92-1,3.75-1.1,5.44.48a23,23,0,0,1,.13,10.15l-.31.33Z"/><path class="cls-13" d="M5.11,58.8c5.35,0,5.35,0,5.35,5.41v5.22c-1.73-.41-4.1.78-5.08-.62-.81-1.17-.17-3.34-.19-5.07S5.13,60.44,5.11,58.8Z"/><path class="cls-14" d="M95.69,21.24c0-2.86.14-5.71,0-8.56,0-1.48.26-2.22,1.92-2a26.43,26.43,0,0,0,3.33,0,3.84,3.84,0,0,1,.67,3.38,27.93,27.93,0,0,0-.47,6.12c0,.92-.35,1.32-1.26,1.26C98.52,21.34,97.09,21.63,95.69,21.24Z"/><path class="cls-13" d="M122.44,58.9l5.4-.09c0,2.84-.17,5.69,0,8.53.08,1.71-.46,2.23-2.1,2a30.43,30.43,0,0,0-3.31,0l-.31-.33C121.61,65.6,121,62.22,122.44,58.9Z"/><path class="cls-13" d="M95.59,32.1l-5.16,0c0-3.53.1-7.07.14-10.6,5.37-.37,5.43-.37,5.34,5C95.88,28.41,96.39,30.3,95.59,32.1Z"/><path class="cls-13" d="M10.41,21.19l-5.33,0c0-2.74.18-5.5.07-8.24-.07-1.72.25-2.64,2.23-2.33a18.42,18.42,0,0,0,3.06,0,3,3,0,0,1,.69,2.65C10.74,15.91,10.75,18.56,10.41,21.19Z"/><path class="cls-15" d="M42.61,154.5c0-2.74.12-5.49,0-8.23-.07-1.67.3-2.51,2.16-2.25a13.89,13.89,0,0,0,2.57-.08c1.27,0,1.26,1,1.38,1.83a14.74,14.74,0,0,1,0,3.32c-.08,1.74.29,3.51-.39,5.21l-.31.32Z"/><path class="cls-16" d="M42.42,133.26c0,2.84-.09,5.68,0,8.52.08,1.69-.5,2.25-2.13,2.06a26.19,26.19,0,0,0-3.07,0q-.08-5.31-.14-10.64l.32-.29C39.15,132.39,40.84,132.07,42.42,133.26Z"/><path class="cls-14" d="M90.46,133.17l5.28,0-.08.51c-.44,2.65-.14,5.32-.16,8,0,1.26-.28,2-1.69,1.78-1.08-.14-2.2.23-3.25-.22Z"/><path class="cls-17" d="M127.18,21.16c-4.52.28-4.52.28-4.82-5.19a5.73,5.73,0,0,1-.24-5l.31-.3.46.1a2.69,2.69,0,0,0,.68.16c3.83.17,3.86.17,3.81,4.11C127.35,17.09,127.65,19.14,127.18,21.16Z"/><path class="cls-18" d="M42.4,31.66c-4.82.07-4.82.07-4.82-4.81,0-1.72,0-3.45,0-5.18l4.76-.23A74.16,74.16,0,0,1,42.4,31.66Z"/><path class="cls-17" d="M117.08,5l.1.46-.32.32c-3.29.61-6.57,1-9.82-.25-.43-5-.43-5,4.38-5,.16,0,.32,0,.47,0,1.56.09,3.41-.59,4.59.28S116.53,3.58,117.08,5Z"/><path class="cls-14" d="M90,154.55l-4.78,0c-.1-.11-.19-.22-.29-.32a5.42,5.42,0,0,1,.23-4.65c.64-1.18.33-2.46.28-3.68-.09-2,1.29-1.58,2.38-1.55s2.54-.59,2.41,1.48C90.07,148.77,90.49,151.67,90,154.55Z"/><path class="cls-17" d="M26.54.7V5a16.77,16.77,0,0,1-10,.08C16,.48,16,.44,20.41.49,22.45.52,24.51.22,26.54.7Z"/><path class="cls-19" d="M95.59,32.1c0-2.82,0-5.64.16-8.45.09-1.67-.5-2.25-2.13-2.08a28.24,28.24,0,0,1-3.05,0c1.67-.77,3.42-.17,5.12-.31,5.25,0,5.26,0,5.35-5.41,0-1.72,0-3.44-.06-5.16v-.09a2.73,2.73,0,0,1,.74-.38c1.65-.13,3.32-.54,4.87.45,0,.55.06,1.1.07,1.66,0,3.48,0,3.59-3.45,3.61-1.83,0-1.78,1-1.79,2.27,0,3.35,0,3.43-3.37,3.45-1.44,0-2,.48-1.9,1.93.09,2.13,0,4.27,0,6.4C96.15,30.71,96.51,31.59,95.59,32.1Z"/><path class="cls-20" d="M10.41,21.19l0-10.56c.17-1.7-.47-3.45.34-5.11a2.25,2.25,0,0,1,.76,2.1c-.12,1.83.72,2.56,2.49,2.44a2.57,2.57,0,0,1,2,.56c0,.47.09.93.1,1.4.08,3.7.08,3.75-3.58,3.91-1.19.06-1.64.43-1.68,1.65S11.34,20.09,10.41,21.19Z"/><path class="cls-21" d="M16,10.62c-5.14.37-5.14.37-5.23-5.1,1.74-.45,3.61.44,5.3-.54.17-.22.34-.22.5,0h10l.08.48-.29.28c-2.16.79-4.39.38-6.59.38-1.86,0-3.11.35-2.95,2.58A2.09,2.09,0,0,1,16,10.63Z"/><path class="cls-22" d="M101.4,128.08c-.74-5.27-.74-5.27,4.85-5.48l.21-.09.18.15c-.35,1.69.67,3.94-.47,5C105.21,128.48,103,128,101.4,128.08Z"/><path class="cls-23" d="M85.22,154.6c0,5.36,0,5.36-5.26,5.25l.05,0a4.8,4.8,0,0,1,0-5.29l0,0a4.83,4.83,0,0,1,5.3,0Z"/><path class="cls-24" d="M53.3,159.85c-.16,0-.31,0-.47,0-5.22.07-5.22.07-4.78-5.26v0c1.53-1.08,3.19-.73,4.85-.44a1.45,1.45,0,0,1,.65.5,6.84,6.84,0,0,1,0,4.82Z"/><path class="cls-25" d="M26.61,122.66h-.47c-5.1,0-5.1,0-4.76-5.23l0,0a5.41,5.41,0,0,1,5.19-.26c1.16,1.63.89,3.36.38,5.12Z"/><path class="cls-11" d="M111.89,117.43c0,5.25,0,5.25-5.25,5.23l.06.06c-.55-1.44-.14-2.93-.24-4.4-.07-1,.63-1.37,1.45-1.48,1.4-.19,2.81-.36,4,.64Z"/><path class="cls-26" d="M117.18,5.44c5.3-.07,5.3-.07,5.25,5.25h0a4.66,4.66,0,0,1-5.23,0h0a4.63,4.63,0,0,1,0-5.22Z"/><path class="cls-27" d="M95.68,133.2a30.19,30.19,0,0,0,.09-3.29c-.11-1.44.2-2.07,1.87-2,3.78.08,3.79,0,3.37,5.32Z"/><path class="cls-28" d="M106.6,10.65l-5.32.06a33.79,33.79,0,0,1,0-5.13l5.33-.14.28.32c.62,1.67.86,3.33-.29,4.9Z"/><path class="cls-13" d="M31.93,132.71c0-1.59,0-3.18,0-4.77l.37-.21a4.94,4.94,0,0,1,.86,0c.71,0,1.43,0,2.14.1,2,.21,2,1.68,2,3.17s-.8,2.13-2.28,1.95C34,132.81,32.91,133.16,31.93,132.71Z"/><path class="cls-29" d="M122.4,69.31c0,11.64-.05,23.27.08,34.9,0,2.08-.6,2.63-2.49,2.35a22.4,22.4,0,0,0-2.84-.07h0a.52.52,0,0,1,.19-.76c3.79-1.13,3.8-1.13,3.8-5.21q0-13.62,0-27.26a7.74,7.74,0,0,1,.46-3.72.52.52,0,0,1,.76-.2Z"/><path class="cls-30" d="M53.76,160c0,4.67,0,4.67,4.79,4.67,6.15,0,12.3,0,18.46,0,.83,0,1.75-.3,2.48.4q-12.43,0-24.88.13c-1,0-1.44-.21-1.36-1.3.1-1.33,0-2.68,0-4v0C53.47,159.71,53.63,159.73,53.76,160Z"/><path class="cls-31" d="M90,154.55c0-2.52-.07-5.05,0-7.56,0-1.58-.16-2.47-2.12-2.45s-2.36.62-2.24,2.34c.07,1,.38,2.06-.36,3a.32.32,0,0,1-.22-.3c0-.13,0-.2.07-.2,0-.15.06-.31.07-.47.15-5.08.15-5.08,5.4-4.76-.05,2.88-.07,5.76-.17,8.64C90.43,153.34,90.91,154.15,90,154.55Z"/><path class="cls-32" d="M117.08,5a1.92,1.92,0,0,1-.34-.6c-.49-3.67-.49-3.67-4.12-3.67h-.71c-4.73,0-4.73,0-4.77,4.63-.11.24-.26.28-.46.11h-.07c-.1-5.3-.1-5.3,5.16-5.3h.71C117.31.14,117.31.14,117.08,5Z"/><path class="cls-33" d="M31.89,127.94c-5.29,0-5.29,0-5.28-5.28l0,.07c1.75-1.11,3.81-1.4,5.22,0s1.12,3.47,0,5.22Z"/><path class="cls-34" d="M90.47,32.12l-.08.5a2,2,0,0,1-.8.5c-3.17.89-3.11.9-3.2,4.15,0,1.78.52,3.67-.69,5.3l-.51.08a69.6,69.6,0,0,0,0-7.78c-.26-2.53.74-3.12,3-2.79A16.74,16.74,0,0,0,90.47,32.12Z"/><path class="cls-35" d="M90.56,143.2c4.67,0,4.62,0,4.7-4.72,0-1.61-.47-3.28.4-4.82,0,3.48.55,7-.32,10.41-1.2-.41-2.43-.07-3.64-.2C91.23,143.82,90.53,144.1,90.56,143.2Z"/><path class="cls-31" d="M37.21,21.23l-.59,0C35.44,19.55,36,17.67,36,15.9c-.09-3.68,0-3.68-3.58-4.26a1.4,1.4,0,0,1-.62-.5c0-.14,0-.27.08-.4,5.3-.07,5.29-.07,5.3,5.3C37.15,17.77,37.18,19.5,37.21,21.23Z"/><path class="cls-36" d="M16.58,5h-.5C15.7.14,15.7.05,20.56.18c2,.05,4.08-.69,6,.52-2.45,0-4.92.15-7.35,0-2.15-.17-2.91.59-2.6,2.66A10.24,10.24,0,0,1,16.58,5Z"/><path class="cls-37" d="M127.18,21.16c0-2.44-.13-4.88,0-7.31.12-2-.33-3-2.54-2.68a1.81,1.81,0,0,1-1.77-.38c4.84-.23,4.84-.23,4.85,4.55,0,2,0,3.93.07,5.9Z"/><path class="cls-38" d="M31.93,132.71a12.38,12.38,0,0,1,2.11,0c2.09.31,2.8-.51,2.63-2.6-.11-1.35-.57-1.78-1.85-1.74-.83,0-1.74.3-2.48-.37,1.57-1.19,3.47-1.35,4.71,0s1.12,3.48,0,5.23l.07,0C35.4,133,33.58,133.77,31.93,132.71Z"/><path class="cls-39" d="M26.61,5.48c5.29-.13,5.29-.13,5.23,5.26l0,0a.46.46,0,0,1-.66-.07c-.06-2.93-1.51-4.48-4.49-4.49a.45.45,0,0,1-.08-.66Z"/><path class="cls-2" d="M101.28,5.58v5.13a1,1,0,0,1-.29-.13C101.15,8.92,100.67,7.22,101.28,5.58Z"/><path class="cls-40" d="M95.69,47.91c0-.32,0-.64.06-.95.12-1.33-.53-2.91.32-3.92s2.39-.32,3.63-.37c1-.05,1.36-.52,1.34-1.48,0-2.14.13-4.29,0-6.41s.38-3.06,2.57-2.67c.31.06.64,0,1,0,1.68.24,2.18-.48,2.14-2.14-.08-3,1.39-4,4.37-3.13,1.16.32.83,1.19.86,1.91.14,3.28.12,3.36,3.25,3.32,1.52,0,2.07.38,2,2-.09,8.24-.07,16.47-.09,24.71l-.25.3c-3,.09-4.88,1.2-4.56,4.57,0,.3-.28.55-.54.74-1.75.54-3.47.81-5.09-.36-.28-1.71.34-3.48-.39-5.16a4.85,4.85,0,0,1-4.78.19c-1.21-1.74-.78-3.65-.57-5.54-1.66-.67-3.43,0-5.11-.39A4.53,4.53,0,0,1,95.69,47.91Z"/><path class="cls-40" d="M16.22,58.8c-.06-8.4-.09-16.8-.19-25.2,0-1.63,1-1.46,2.06-1.48,3.2-.07,3.36-.08,3.19-3.12-.12-2.2,1-2.2,2.6-2.18s3.14-.14,2.72,2.23.57,3.51,3.06,3.07c1.82-.32,2.34.5,2.23,2.25-.14,2.21,0,4.44,0,6.66,0,1,.18,1.56,1.41,1.65,3.79.27,3.79.33,3.88,4.11,0,.4.06.79.1,1.19a5.33,5.33,0,0,1-.09,5.18c-1.7.36-3.49-.38-5.16.39a5,5,0,0,1-.21,5.26l0-.05c-3.17.36-5,2.1-5.27,5.3l0,0c-1.64,1.19-3.37.93-5.12.34,0,0-.13-.1-.16-.16A12.51,12.51,0,0,0,16.22,58.8Z"/><path class="cls-41" d="M85.15,128l-5.23,0c-1.64,1.19-3.51.58-5.29.69-5.31.09-10.62.11-15.94,0-1.79.06-3.59.07-5.39,0s-3.67.43-5.37-.6a5.28,5.28,0,0,1,.12-5.35c2.7,0,5.4-.09,8.09,0,1.83.09,2.75-.43,2.4-2.36-.45-2.47.61-3.13,3-3,3.48.2,7,.15,10.47,0,2.07-.08,3,.6,2.71,2.7s.5,2.79,2.61,2.64c2.61-.17,5.24,0,7.86,0A4.43,4.43,0,0,1,85.15,128Z"/><path class="cls-3" d="M48.05,127.93h5.22c1.2,1.6.64,3.44.72,5.19s.06,3.49,0,5.24c0,.55,0,1.1,0,1.65,0,2.92,0,3,3,3.46,1.72.27,2.17,1.34,2.22,2.82,0,1.18.23,2.1,1.72,2.35,3.69.64,4.53,2.63,2.73,6.15-3.49.82-7,1.11-10.43-.18l0,0c-.24-3.27-2.1-4.94-5.26-5.33-.56-1.75.59-3.72-.7-5.38-.07,0-.13-.11-.2-.12-4.39-.4-4.4-.4-4.39-5,0-1.88,0-3.75,0-5.63A11.43,11.43,0,0,0,48.05,127.93Z"/><path class="cls-7" d="M37.06,133.2a4,4,0,0,0,.07-.46c.14-5,.14-5-4.79-4.73l-.52,0c.12-5.42.12-5.42-5.23-5.23l0-5.27c2.41-1.47,5.07-.77,7.58-.69,2.71.08,5.43.37,8.13.7l.09,15.79Z"/><path class="cls-42" d="M21.31,107c-1.65-.93-3.48-.08-5.19-.52l.06-26.72a4.77,4.77,0,0,1,5.18.09l.1,26.71A.31.31,0,0,1,21.31,107Z"/><path class="cls-43" d="M117.24,106a1.07,1.07,0,0,0,0,.47l-5.22.07q0-13.36,0-26.73a5,5,0,0,1,5.41-.07,5.4,5.4,0,0,1,.59,3.2q0,9.94,0,19.89A4.71,4.71,0,0,1,117.24,106Z"/><path class="cls-44" d="M111.94,117.48c-6.6-.11-5.27-1.32-5.24,5.24l-.45-.12c-.15-5.18-.15-5.19-5.26-5.17-3.48,0-6.95,0-10.42.08.16-.15.35-.45.5-.43,3.35.44,5.47-.33,4.73-4.39-.18-1,.86-.92,1.56-.92,2.52,0,5,0,7.57,0,1.15,0,1.67-.32,1.75-1.59.21-3.72.27-3.72,4.06-3.69l1.18,0C111.93,110.19,111.93,113.84,111.94,117.48Z"/><path class="cls-45" d="M69.05,64.06c5.68.1,5.68.1,5.68,5.8,0,4.29-.11,8.58,0,12.86.08,2.23-.7,3.07-2.88,2.82a22.76,22.76,0,0,0-2.86,0l-.31-.33a4.09,4.09,0,0,1-.43-2.06q-.06-8.35,0-16.73a4.08,4.08,0,0,1,.43-2.05Z"/><path class="cls-44" d="M21.31,107a1.1,1.1,0,0,0,.15-.44c.4,0,.79,0,1.19,0,3.72,0,3.77,0,3.93,3.61.06,1.22.44,1.71,1.68,1.67,2.3-.06,4.6,0,6.9,0,1.37,0,2,.34,2,1.86,0,3.3.1,3.3,3.42,3.4.62,0,1.3-.17,1.75.47H26.61a24.34,24.34,0,0,0-5.26,0C21.34,114,21.32,110.49,21.31,107Z"/><path class="cls-45" d="M63.78,85.53c-5.24,0-5.24,0-5.24-5.4,0-4.5.12-9,0-13.48-.08-2.15.63-2.86,2.67-2.59a18.79,18.79,0,0,0,2.6,0l.32.33a4.48,4.48,0,0,1,.43,2.31q0,8.08,0,16.17a4.62,4.62,0,0,1-.42,2.32Z"/><path class="cls-46" d="M48,101.23c5.32.09,5.32.09,5.32,5.35,0,2.85-.13,5.7,0,8.54.12,2-.65,2.52-2.45,2.33a26.89,26.89,0,0,0-2.84,0l0,0L48,105.55a4.51,4.51,0,0,1-.25-4A4,4,0,0,1,48,101.23Z"/><path class="cls-47" d="M48,90.91c0,3.44,0,6.88,0,10.32l.06,0a16,16,0,0,1-10.92,0l0,0c-1.18-1.65-.94-3.36-.27-5.1,1.31-1.34,3.2-.39,4.65-1.18.57-.42.57-1,.63-1.67.26-2.88.67-3.23,3.59-3.16a4.31,4.31,0,0,1,1.6.23A1.64,1.64,0,0,1,48,90.91Z"/><path class="cls-48" d="M85.24,117.44c-5.26,0-5.26,0-5.26-5.4,0-2.84.09-5.69,0-8.53-.08-1.77.46-2.49,2.26-2.28a24.35,24.35,0,0,0,3.08,0l.28.33c.45,1.67.69,3.34-.3,4.93,0,3.66,0,7.32,0,11Z"/><path class="cls-49" d="M85.28,101.23q0-5.22,0-10.44c1.61-1.08,3.31-.78,5-.34a2.41,2.41,0,0,1,.81,2.3c-.09,1.87.66,2.76,2.58,2.61a3.72,3.72,0,0,1,1.82.31,1.38,1.38,0,0,1,.57.6c.41,1.7.71,3.4-.37,5h0a15.32,15.32,0,0,1-10.47,0Z"/><path class="cls-50" d="M48.05,127.93a2.61,2.61,0,0,0-.08.46c-.18,4.9-.18,4.9-5.19,4.8,0-4.34.12-8.68,0-13-.07-2.11.45-3.12,2.71-2.77a18.75,18.75,0,0,0,2.6,0l0,0v10.49Z"/><path class="cls-48" d="M85.15,128l0-5.26.06-5.28,0,0h5.27v15.73C85.36,133.29,85.36,133.29,85.15,128Z"/><path class="cls-51" d="M48,90.91a2.17,2.17,0,0,1-.41-.19,6.36,6.36,0,0,0-3-.16c-1.64.14-2.34-.53-2.36-2.12,0-.69.08-1.44-.63-1.91-1.51-.61-3.09-.18-4.62-.32-1.7-.07-3.47.45-5-.66,2.51-1,5.13-.44,7.69-.43,2.12,0,3.14-.49,2.78-2.76s.92-2.6,2.83-2.59,3,.27,2.9,2.57C47.91,85.19,48,88.05,48,90.91Z"/><path class="cls-42" d="M85.25,90.32c0-2.75.07-5.5,0-8.24-.08-1.71.4-2.5,2.22-2.29a26,26,0,0,0,3.06,0h0c0,5.23,0,5.17,5.18,5.29,1.76,0,3.61-.57,5.31.44-1.56,1.13-3.34.62-5,.68l-.94,0c-3.21,0-3.21,0-4,3.22a1.59,1.59,0,0,1-.6,1A19.31,19.31,0,0,1,85.25,90.32Z"/><path class="cls-52" d="M37.15,53.16,37.24,48l10.34,0c.67.92.36,2,.47,3,.18,1.61-.39,2.28-2.11,2.2C43,53.07,40.08,53.16,37.15,53.16Z"/><path class="cls-45" d="M63.76,64.07c0-3,.1-6,0-9,0-1.63.62-2.11,2.1-1.95s3.21-.57,3.19,1.94c0,3,0,6,0,9l0,0a4.83,4.83,0,0,1-5.22,0Z"/><path class="cls-53" d="M37.12,101.19l10.92,0c0,1.45,0,2.89-.07,4.34a2.17,2.17,0,0,1-2.22,1c-2.13,0-4.27-.13-6.4,0-1.77.12-2.48-.48-2.27-2.27A28.71,28.71,0,0,0,37.12,101.19Z"/><path class="cls-45" d="M90.48,79.81c0-5.24,0-5.24,5.16-5.24a15.47,15.47,0,0,0,2.36,0c2.42-.39,3.19.55,3,3-.11,1.68-.43,2.42-2.27,2.32-2.76-.14-5.53,0-8.3,0Z"/><path class="cls-41" d="M85.25,101.22l10.47,0c0,5.26,0,5.26-5.29,5.26l-5.17,0C85.26,104.73,85.25,103,85.25,101.22Z"/><path class="cls-54" d="M95.69,47.91l.12,5.22c-2.7,0-5.4-.1-8.08.07-2,.11-2.79-.51-2.52-2.51a22.7,22.7,0,0,0,0-2.61Z"/><path class="cls-55" d="M21.36,79.84l-5.18-.09,0-10.35c1.55-1.17,3.22-.85,4.9-.38l.31.3Z"/><path class="cls-56" d="M117.1,79.81l-5.18,0c0-3.5,0-7,0-10.51l.31-.29a7.09,7.09,0,0,1,4.89.07,1.79,1.79,0,0,1,.51.7,42.37,42.37,0,0,1,.19,8.35A1.94,1.94,0,0,1,117.1,79.81Z"/><path class="cls-51" d="M37.08,79.81a17,17,0,0,0-2.37,0c-2.27.34-3.05-.52-2.92-2.84.09-1.75.37-2.62,2.37-2.46a63.93,63.93,0,0,0,6.64,0c2,0,1.58,1.4,1.51,2.47s.78,2.77-1.44,2.78Z"/><path class="cls-57" d="M31.89,85.55h5.23a3.09,3.09,0,0,1,.64,2.21c0,1.24.54,1.85,1.85,1.87s2.07-.46,2.07-1.89a3,3,0,0,1,.64-2.2c.86.75.51,1.77.46,2.64-.1,1.61.44,2.28,2.11,2.15.88-.07,1.88-.35,2.67.39-1.48.19-3.29-.57-4.38.35s-.21,2.7-.43,4.09a2.58,2.58,0,0,1-.43.77,2.28,2.28,0,0,1-.57-1.26c-.56-3.21-.56-3.21-3.86-3.22l-.7,0a25.44,25.44,0,0,1-4.78-.19,1.52,1.52,0,0,1-.66-.46C31.79,89,31.84,87.29,31.89,85.55Z"/><path class="cls-58" d="M95.7,85.54H101l0,5.19c-1.6,1.24-3.47.65-5.24.74-1.76-.09-3.62.49-5.25-.69l-5.23,0a1.49,1.49,0,0,1,0-.47l5.23,0a1.39,1.39,0,0,1,.38-.27C93.93,88.93,94.38,88.51,95.7,85.54Z"/><path class="cls-59" d="M100.92,53.52c.81,1.69-.06,3.54.53,5.25a4.88,4.88,0,0,1,0,5.26c-.15-.26-.4-.51-.43-.79-.17-1.33.49-2.93-.32-3.94s-2.56-.2-3.84-.5c-2-.49-.9-2.18-1.11-3.33-.17-1-.08-1.94,1.38-1.9C98.38,53.61,99.65,53.54,100.92,53.52Z"/><path class="cls-60" d="M95.7,101.26c0-1.76,0-3.51,0-5.27a5,5,0,0,1,5.3,0,1.38,1.38,0,0,0,.45,0h0a2,2,0,0,1-.07.7c-.78,1.38.46,3.56-1,4.31C99.08,101.66,97.27,101.22,95.7,101.26Z"/><path class="cls-61" d="M37.08,96c0,1.74.05,3.49.08,5.24-5.3.09-5.3.09-5.3-5.22l.28-.28a7.13,7.13,0,0,1,4.65,0Z"/><path class="cls-62" d="M101.44,96c0-1.11,0-2.22,0-3.32-.1-1.36.29-2,1.82-2,3.26,0,4.31,1.28,3.42,4.4-.24.83-.79.88-1.44.88h-3.77Z"/><path class="cls-40" d="M101,96h-5.3l0,0a4.62,4.62,0,0,1,0-5.26l5.22,0C101,92.47,101,94.23,101,96Z"/><path class="cls-63" d="M31.86,96a23.59,23.59,0,0,0-2.38,0c-1.92.18-3-.1-3-2.58.06-2.25.74-3,2.86-2.7a18.84,18.84,0,0,0,2.38,0h.15a4.94,4.94,0,0,1,0,5.21Z"/><path class="cls-41" d="M106.66,64l5.23,0a4.69,4.69,0,0,1,0,5.29h0C106.63,69.32,106.63,69.32,106.66,64Z"/><path class="cls-63" d="M21.37,64.05l5.22,0c.07,5.33.07,5.33-5.23,5.3h0A4.78,4.78,0,0,1,21.37,64.05Z"/><path class="cls-63" d="M26.55,64.06a3.73,3.73,0,0,0,0-.47c.11-4.94.1-4.94,5.23-4.83C32,64.13,32,64.13,26.55,64.06Z"/><path class="cls-64" d="M31.78,58.81,32,53.55a32.64,32.64,0,0,0,3.28,0c1.48-.12,1.86.52,1.87,1.91,0,3.35.09,3.35-3.24,3.34Z"/><path class="cls-43" d="M69,85.55c0,.7,0,1.41,0,2.12,0,3.29,0,3.24-3.26,3.12-1.37-.05-2-.53-2-2,0-1.09,0-2.2,0-3.3l0,0a4.89,4.89,0,0,1,5.18,0Z"/><path class="cls-52" d="M101.44,64c0-1.75,0-3.5,0-5.26l4.82.1c0,.24,0,.47,0,.7C106.15,64.2,106.15,64.2,101.44,64Z"/><path class="cls-65" d="M5.24,58.38V21.66c5.17.08,5.17.08,5.17,5.29q0,14,0,28.05c0,3.69.39,3.33-3.27,3.36Z"/><path class="cls-2" d="M21.37,64.05v5.27l-5.22.08c-.73-3.49-.41-7-.51-10.55l.58-.05C21.24,58.75,21.24,58.75,21.37,64.05Z"/><path class="cls-66" d="M26.63,5.49a1.09,1.09,0,0,0,.06.44c.84,1.36.61,2.8.35,4.24a1.23,1.23,0,0,1-.49.61L16,10.63c0-5.19,0-5.19,5.16-5.18C23,5.45,24.82,5.47,26.63,5.49Z"/><path class="cls-14" d="M31.94,11.17c4.68.05,4.68.05,4.68,4.8v5.22c-4.56.27-4.56.27-4.83-5.22A4.09,4.09,0,0,1,31.94,11.17Z"/><path class="cls-67" d="M31.94,11.17,31.79,16c-5-.05-5-.05-5.24-5.19l.11-.11a4.44,4.44,0,0,1,4.74,0,2.33,2.33,0,0,0,.46.08Z"/><path class="cls-68" d="M127.71,58.35H122.4q0-16.62,0-33.23c0-3.82-.43-3.43,3.39-3.46h1.9a4.58,4.58,0,0,1,.71,3.16q0,15.17,0,30.33A4.61,4.61,0,0,1,127.71,58.35Z"/><path class="cls-69" d="M127.71,58.35q0-18.33,0-36.66l.48,0a1.62,1.62,0,0,0,.45.16c4,.26,4,.26,4,4.22V55.34c0,3.14.23,2.76-2.82,2.78a3.67,3.67,0,0,0-1.64.18Z"/><path class="cls-51" d="M122.4,69.35l-.47.06a4.42,4.42,0,0,1-4.78-.06h0a16.55,16.55,0,0,1,0-10.57h0c1.78,0,3.59.44,5.3-.41h0c0,.18,0,.36,0,.54Q122.43,64.14,122.4,69.35Z"/><path class="cls-66" d="M106.68,5.45a1.92,1.92,0,0,0,.46-.11l10,.13c0,1.74,0,3.48,0,5.22l-10.59,0C106.63,8.92,106.65,7.19,106.68,5.45Z"/><path class="cls-13" d="M85.7,42.57c0-2.52.11-5,0-7.56-.1-1.83.45-2.65,2.36-2.39a16.9,16.9,0,0,0,2.36,0c0,2.61,0,5.23.12,7.83.12,1.77-.4,2.49-2.21,2.22A22.52,22.52,0,0,0,85.7,42.57Z"/><path class="cls-67" d="M117.18,10.69h5.23c0,1.76,0,3.51,0,5.27C117.1,15.93,117.1,15.93,117.18,10.69Z"/><path class="cls-70" d="M128.18,58.3c.12-.1.24-.26.37-.29,3.86-.66,3.86-.66,3.86-4.79,0-9.35-.08-18.71.05-28.07,0-2.34-.48-3.46-3-3a1.28,1.28,0,0,1-1.3-.4c4.73-.54,4.73-.54,4.73,4,0,9.83,0,19.66,0,29.5,0,3.64.65,3.16-3.31,3.19A11.22,11.22,0,0,1,128.18,58.3Z"/><path class="cls-40" d="M63.78,154.59c0-.39,0-.79,0-1.19,0-3.86,0-3.92-3.82-4.06-1.15,0-1.58-.38-1.47-1.51.07-.71-.05-1.43,0-2.14.14-1.29-.25-1.94-1.67-1.75-.62.09-1.27-.05-1.9,0-1.34.16-1.88-.33-1.74-1.71s.08-2.54.11-3.81a2,2,0,0,1,1.68-.64c2.24.2,3.1-.85,2.9-3a2.66,2.66,0,0,1,.37-1.56,1.56,1.56,0,0,1,.66-.51c4.62-.58,9.24-.27,13.86-.19A2.19,2.19,0,0,1,75,134.08c.72,1.08-.25,2.71.78,3.49s2.3,0,3.42.46a1.35,1.35,0,0,1,.72.8c0,.24,0,.48,0,.71,0,4.08,0,4.12-4,4.38-1,.07-1.48.3-1.35,1.37.07.63-.06,1.28,0,1.9.21,1.61-.33,2.41-2.06,2.13-.46-.07-1,.05-1.42,0-1.62-.26-2.11.45-1.95,2,.12,1.1,0,2.21.06,3.32a1.33,1.33,0,0,1-.62.45,8.47,8.47,0,0,1-4.52-.17C64,154.78,63.86,154.69,63.78,154.59Z"/><path class="cls-71" d="M80,154.59l0,5.29-11-.09a4.67,4.67,0,0,1-.06-5.17l.18,0Z"/><path class="cls-72" d="M79.89,138.83l-.38-.42c-.13-.29,0,.11-.14-.18a10.45,10.45,0,0,0-4.82-5.09,5.44,5.44,0,0,1,.12-5.11l5.25-.09Z"/><path class="cls-73" d="M85.15,149.34l.15.5,0,4.8-5.3,0C79.87,149.31,79.87,149.31,85.15,149.34Z"/><path class="cls-74" d="M53.27,154.62l10.51,0h.12a5,5,0,0,1-.13,5.22l-10,.16-.47-.07Z"/><path class="cls-75" d="M63.77,159.8c0-1.74.09-3.48.13-5.22l5.1,0,.06,5.17Z"/><path class="cls-76" d="M48,149.32c5.18.05,5.18.05,5.26,5.33H48Z"/><path class="cls-4" d="M117.15,69.35l4.78.06q0,16.62,0,33.24c0,3.69.39,3.34-3.25,3.37h-1.43q-.08-13.11-.14-26.22Q117.13,74.59,117.15,69.35Z"/><path class="cls-14" d="M29.15,123.21c1.6-.29,2.28.23,2.28,2s-.43,2.36-2.25,2.33-2.16-.58-2.13-2.2S27.37,122.82,29.15,123.21Z"/><path class="cls-77" d="M31.4,10.63l-4.74,0,0-4.74C31.34,6,31.34,6,31.4,10.63Z"/><path class="cls-48" d="M117.11,58.78c0,3.53,0,7,0,10.57H111.9c0-1.76,0-3.53,0-5.29C112,58.8,112,58.8,117.11,58.78Z"/><path class="cls-78" d="M74.67,128l.08,5.14a1.05,1.05,0,0,1,0,1.48,2.26,2.26,0,0,0-2.51-1.5c-4.56.1-9.11,0-13.67,0a4.58,4.58,0,0,1,0-5.21Z"/><path class="cls-42" d="M58.58,128l0,5.21h0a4.78,4.78,0,0,1-5.2,0c0-1.75-.05-3.5-.08-5.25Z"/><path class="cls-79" d="M53.35,133.19h5.2c0,5.26,0,5.26-5.21,5.26C53.34,136.7,53.34,135,53.35,133.19Z"/><path class="cls-80" d="M69,85.5H63.82q0-10.69,0-21.39H69Q69,74.8,69,85.5Z"/><path class="cls-53" d="M37.19,90.78c5.23-.07,5.23-.07,5.13,5.15L37.08,96l0,0A4.49,4.49,0,0,1,37.19,90.78Z"/><path class="cls-81" d="M95.76,90.77l0,5.26-.24,0c-5-.1-5-.1-5-5.24Z"/><path class="cls-82" d="M42.32,85.54c0,1,0,2,0,3,.1,1.37-.54,1.7-1.8,1.73-3.46.09-3.46.14-3.45-3.36,0-.47,0-.94,0-1.41Z"/><path class="cls-83" d="M95.7,85.54c.06,4.77.06,4.77-5.22,4.75C90.45,85.45,90.45,85.45,95.7,85.54Z"/><path class="cls-49" d="M37.19,90.78c0,1.75,0,3.5-.08,5.25l-5.23,0c0-1.74,0-3.48,0-5.21Z"/><path class="cls-67" d="M74.73,134.65c0-.49,0-1,0-1.48,4.88.05,4.88.05,4.76,5.24l-.94,0C74.66,138.48,74.66,138.48,74.73,134.65Z"/><path d="M164.92,145.48V19.83H273V145.48Zm67.5-34V53.69H205.54v57.82Z"/><path d="M796.16,19.75h107.9V145.47H796.16Zm40.6,33.89v57.85h26.82V53.64Z"/><path d="M560.14,19.66h39.91V39.31h15.5V61.23h9.65V19.9h40.34V145.26H625.36V125.7H610.08V104h-9.66v41.4H560.14Z"/><path d="M395.13,19.67h87.31V30.46h11.07v102.9H482.82v12H395.13Zm57.5,34.11H436.07v57.64h16.56Z"/><path d="M381.42,145.54h-40V100.92h-15V145.4h-40.3V19.83h95.41V91.41l-10.31.53v5.5h10.21ZM327,65.17h13.53V53.69H327Z"/><path d="M719.22,111.52H751.7V89.59h32.77v55.68H678.16V19.83H784.58V53.19H719.22Z"/><path d="M507.08,19.63h39.33V145.32H507.08Z"/></g></g></svg>