<svg xmlns="http://www.w3.org/2000/svg" viewBox="0 0 739.14 125.9"><g id="Layer_2" data-name="Layer 2"><g id="Layer_1-2" data-name="Layer 1"><path d="M0,125.85V.19H108V125.85Zm67.5-34V34.05H40.61V91.87Z"/><path d="M631.24.12h107.9V125.84H631.24ZM671.84,34V91.85h26.81V34Z"/><path d="M395.22,0h39.91V19.68h15.49V41.6h9.66V.26h40.34V125.63H460.44V106.07H445.16V84.39h-9.67v41.4H395.22Z"/><path d="M230.21,0h87.31v10.8h11.07v102.9H317.9v12H230.21Zm57.5,34.11H271.15V91.78h16.56Z"/><path d="M216.5,125.9h-40V81.29h-15v44.48h-40.3V.2H216.6V71.78l-10.31.52v5.5H216.5ZM162.06,45.53h13.52V34.06H162.06Z"/><path d="M554.3,91.89h32.48V70h32.76v55.68H513.24V.19H619.66V33.55H554.3Z"/><path d="M342.16,0h39.33V125.68H342.16Z"/></g></g></svg>